<svg xmlns="http://www.w3.org/2000/svg" id="canvas" viewBox="210.535 239.159 1095.969 242.596"><path d="M 255.39,262.36 C 254.77 263.98, 255.27 265.57, 255.55 270.12 C 255.83 274.66, 256.29 277.65, 256.80 285.08 C 257.31 292.51, 257.63 297.43, 258.10 307.26 C 258.57 317.08, 258.86 322.97, 259.17 334.19 C 259.48 345.41, 259.56 351.84, 259.64 363.36 C 259.71 374.88, 259.72 381.21, 259.56 391.78 C 259.40 402.36, 259.33 407.78, 258.84 416.22 C 258.35 424.66, 258.00 428.69, 257.12 433.97 C 256.24 439.24, 255.01 440.34, 254.43 442.60 C 253.85 444.85, 254.38 444.83, 254.21 445.23 C 254.03 445.62, 253.84 444.41, 253.54 444.55 C 253.25 444.69, 252.40 445.42, 252.72 445.93 C 253.05 446.44, 253.94 447.46, 255.18 447.11 C 256.43 446.76, 257.85 446.72, 258.95 444.19 C 260.06 441.65, 260.17 440.00, 260.70 434.43 C 261.23 428.86, 261.35 424.86, 261.60 416.34 C 261.84 407.82, 261.87 402.41, 261.94 391.81 C 262.01 381.21, 262.00 374.88, 261.94 363.34 C 261.88 351.81, 261.82 345.38, 261.65 334.14 C 261.48 322.90, 261.30 317.00, 261.09 307.15 C 260.87 297.30, 260.78 292.37, 260.58 284.90 C 260.39 277.43, 260.49 274.36, 260.11 269.79 C 259.73 265.21, 259.62 263.51, 258.67 262.02 C 257.73 260.53, 256.01 260.74, 255.39 262.36" style="stroke: black; fill: black;"/><path d="M 218.62,291.51 C 219.77 290.76, 220.11 289.83, 220.98 287.47 C 221.85 285.12, 221.41 283.32, 222.97 279.74 C 224.53 276.15, 225.32 273.63, 228.76 269.56 C 232.20 265.48, 234.76 263.03, 240.15 259.37 C 245.54 255.71, 248.97 253.84, 255.71 251.25 C 262.46 248.66, 266.56 247.45, 273.89 246.41 C 281.22 245.38, 285.39 245.23, 292.37 246.08 C 299.34 246.93, 303.06 248.04, 308.77 250.66 C 314.48 253.27, 317.24 255.23, 320.93 259.16 C 324.62 263.09, 326.01 265.49, 327.23 270.30 C 328.45 275.11, 328.48 277.79, 327.03 283.19 C 325.58 288.60, 323.86 291.77, 320.00 297.32 C 316.14 302.87, 313.06 306.00, 307.72 310.94 C 302.39 315.88, 298.72 318.34, 293.30 322.01 C 287.89 325.68, 284.38 326.87, 280.63 329.27 C 276.88 331.68, 275.27 332.29, 274.56 334.03 C 273.84 335.77, 274.65 337.23, 277.06 337.97 C 279.47 338.71, 281.61 337.78, 286.59 337.75 C 291.58 337.71, 295.24 337.10, 301.98 337.81 C 308.72 338.51, 313.06 338.92, 320.30 341.26 C 327.54 343.61, 331.69 345.29, 338.19 349.51 C 344.69 353.73, 348.10 356.49, 352.79 362.35 C 357.49 368.21, 359.56 371.72, 361.67 378.80 C 363.79 385.87, 364.20 389.83, 363.38 397.73 C 362.55 405.64, 361.37 410.16, 357.54 418.33 C 353.71 426.51, 350.73 431.04, 344.24 438.60 C 337.74 446.16, 333.31 450.08, 325.08 456.13 C 316.85 462.17, 311.76 465.04, 303.09 468.83 C 294.43 472.63, 289.55 473.96, 281.74 475.09 C 273.93 476.21, 269.89 475.81, 264.03 474.44 C 258.18 473.08, 255.80 471.59, 252.46 468.24 C 249.12 464.89, 248.06 462.65, 247.33 457.69 C 246.60 452.72, 246.80 449.66, 248.81 443.42 C 250.82 437.18, 252.66 433.39, 257.38 426.48 C 262.10 419.57, 265.43 415.67, 272.43 408.88 C 279.43 402.09, 283.84 398.52, 292.39 392.51 C 300.94 386.51, 305.91 383.55, 315.18 378.85 C 324.46 374.15, 329.61 372.02, 338.76 369.02 C 347.92 366.01, 352.78 364.93, 360.97 363.83 C 369.16 362.73, 373.18 362.71, 379.72 363.53 C 386.26 364.35, 389.10 365.31, 393.66 367.92 C 398.23 370.53, 399.91 372.30, 402.55 376.60 C 405.20 380.90, 405.92 383.55, 406.89 389.41 C 407.86 395.28, 407.73 398.92, 407.38 405.93 C 407.03 412.93, 406.32 417.23, 405.15 424.45 C 403.98 431.68, 402.92 435.95, 401.54 442.04 C 400.16 448.13, 398.67 451.41, 398.23 454.89 C 397.78 458.36, 398.48 459.01, 399.32 459.43 C 400.16 459.84, 401.66 458.60, 402.41 456.96 C 403.16 455.32, 404.08 452.49, 403.06 451.22 C 402.05 449.94, 398.60 449.51, 397.32 450.58 C 396.04 451.66, 396.15 454.71, 396.68 456.60 C 397.20 458.49, 398.62 460.14, 399.95 460.03 C 401.28 459.92, 402.20 459.50, 403.35 456.07 C 404.50 452.64, 404.59 449.08, 405.68 442.88 C 406.78 436.67, 407.74 432.37, 408.82 425.02 C 409.90 417.67, 410.72 413.36, 411.09 406.11 C 411.46 398.87, 411.74 395.09, 410.68 388.78 C 409.62 382.47, 408.85 379.36, 405.80 374.57 C 402.74 369.77, 400.55 367.65, 395.40 364.82 C 390.26 361.99, 387.04 361.16, 380.08 360.42 C 373.11 359.67, 369.00 359.86, 360.58 361.10 C 352.16 362.35, 347.27 363.52, 337.97 366.64 C 328.67 369.76, 323.49 371.93, 314.09 376.69 C 304.69 381.46, 299.67 384.43, 290.96 390.47 C 282.25 396.51, 277.77 400.07, 270.54 406.91 C 263.31 413.76, 259.85 417.62, 254.82 424.70 C 249.80 431.78, 247.68 435.60, 245.43 442.31 C 243.18 449.02, 242.69 452.55, 243.59 458.26 C 244.48 463.96, 245.95 466.96, 249.90 470.83 C 253.85 474.70, 256.87 476.19, 263.32 477.60 C 269.77 479.01, 274.00 479.16, 282.16 477.88 C 290.32 476.60, 295.25 475.14, 304.13 471.19 C 313.01 467.24, 318.15 464.32, 326.56 458.14 C 334.97 451.95, 339.49 448.00, 346.18 440.27 C 352.86 432.54, 355.98 427.94, 359.99 419.49 C 364.00 411.04, 365.32 406.35, 366.23 398.04 C 367.14 389.73, 366.76 385.47, 364.55 377.95 C 362.35 370.42, 360.13 366.65, 355.21 360.43 C 350.29 354.20, 346.71 351.34, 339.96 346.83 C 333.21 342.32, 328.94 340.58, 321.46 337.87 C 313.99 335.16, 309.57 334.43, 302.59 333.28 C 295.62 332.12, 291.72 332.13, 286.60 332.09 C 281.48 332.04, 279.07 332.26, 277.00 333.06 C 274.94 333.85, 275.04 335.96, 276.27 336.05 C 277.50 336.15, 279.31 335.68, 283.17 333.52 C 287.04 331.37, 290.19 329.25, 295.61 325.27 C 301.02 321.29, 304.74 318.79, 310.23 313.63 C 315.72 308.46, 318.95 305.33, 323.05 299.44 C 327.16 293.56, 329.17 290.21, 330.76 284.19 C 332.36 278.16, 332.44 274.86, 331.03 269.33 C 329.61 263.81, 327.85 260.93, 323.69 256.55 C 319.54 252.17, 316.42 250.18, 310.24 247.42 C 304.05 244.65, 300.13 243.58, 292.77 242.71 C 285.41 241.84, 281.09 242.03, 273.43 243.07 C 265.77 244.10, 261.56 245.31, 254.46 247.89 C 247.36 250.47, 243.82 252.30, 237.94 255.95 C 232.05 259.60, 229.19 261.97, 225.04 266.14 C 220.90 270.30, 219.49 272.87, 217.21 276.78 C 214.92 280.70, 214.01 282.81, 213.62 285.71 C 213.23 288.60, 214.25 290.09, 215.25 291.26 C 216.25 292.42, 217.48 292.27, 218.62 291.51" style="stroke: black; fill: black;"/><path d="M 406.34,295.34 C 407.67 295.69, 408.66 295.81, 408.39 295.86 C 408.12 295.90, 405.97 295.78, 405.00 295.57 C 404.03 295.36, 403.35 295.32, 403.52 294.82 C 403.70 294.32, 405.80 293.66, 405.90 293.05 C 405.99 292.43, 405.17 291.90, 404.00 291.74 C 402.83 291.59, 400.50 291.79, 400.05 292.27 C 399.60 292.74, 400.49 293.48, 401.75 294.10 C 403.00 294.71, 405.01 294.99, 406.34 295.34" style="stroke: black; fill: black;"/><path d="M 449.99,268.03 C 449.18 269.33, 449.27 270.56, 449.19 274.43 C 449.10 278.30, 449.49 280.71, 449.57 287.36 C 449.66 294.01, 449.77 298.40, 449.63 307.68 C 449.48 316.96, 449.22 322.66, 448.86 333.76 C 448.50 344.87, 448.18 351.36, 447.80 363.19 C 447.43 375.02, 447.21 381.71, 446.99 392.90 C 446.77 404.08, 446.62 410.11, 446.70 419.11 C 446.77 428.11, 446.55 432.33, 447.38 437.88 C 448.20 443.43, 448.78 445.59, 450.83 446.85 C 452.87 448.10, 455.18 447.30, 457.61 444.16 C 460.03 441.02, 460.73 437.54, 462.95 431.16 C 465.17 424.78, 466.42 420.04, 468.72 412.27 C 471.02 404.50, 472.23 399.55, 474.47 392.31 C 476.71 385.07, 477.87 381.24, 479.93 376.05 C 481.98 370.87, 483.44 368.96, 484.76 366.39 C 486.08 363.83, 486.05 363.31, 486.52 363.24 C 487.00 363.17, 486.42 364.20, 487.16 366.04 C 487.89 367.88, 488.60 369.44, 490.19 372.45 C 491.79 375.46, 493.16 377.45, 495.15 381.11 C 497.14 384.77, 498.31 387.07, 500.15 390.74 C 502.00 394.40, 502.72 396.52, 504.37 399.43 C 506.01 402.34, 506.68 403.83, 508.38 405.29 C 510.07 406.74, 511.26 406.99, 512.86 406.71 C 514.46 406.43, 515.49 405.63, 516.37 403.87 C 517.25 402.12, 517.75 400.61, 517.27 397.93 C 516.79 395.25, 515.46 393.65, 513.95 390.47 C 512.44 387.29, 511.25 385.37, 509.71 382.03 C 508.18 378.68, 507.41 376.73, 506.27 373.74 C 505.13 370.76, 504.69 369.20, 504.01 367.11 C 503.32 365.02, 502.65 364.48, 502.82 363.29 C 502.99 362.11, 503.39 362.23, 504.85 361.18 C 506.32 360.13, 507.41 359.66, 510.14 358.05 C 512.86 356.43, 514.69 355.31, 518.48 353.11 C 522.28 350.92, 524.65 349.85, 529.12 347.06 C 533.59 344.26, 536.19 342.78, 540.83 339.14 C 545.48 335.51, 547.99 333.43, 552.35 328.87 C 556.71 324.31, 558.93 321.75, 562.61 316.33 C 566.30 310.91, 568.13 307.70, 570.77 301.79 C 573.42 295.87, 574.44 292.47, 575.85 286.75 C 577.27 281.04, 577.68 278.04, 577.83 273.21 C 577.98 268.38, 578.16 265.77, 576.59 262.60 C 575.03 259.42, 573.02 257.88, 570.01 257.36 C 566.99 256.84, 564.67 257.36, 561.52 259.99 C 558.38 262.63, 557.08 264.95, 554.29 270.55 C 551.50 276.15, 550.00 279.74, 547.59 288.00 C 545.17 296.27, 543.89 301.50, 542.23 311.88 C 540.58 322.26, 539.86 328.56, 539.30 339.93 C 538.75 351.29, 538.74 357.77, 539.47 368.70 C 540.19 379.63, 540.96 385.36, 542.95 394.58 C 544.93 403.80, 546.21 408.23, 549.38 414.80 C 552.55 421.36, 554.50 424.16, 558.80 427.40 C 563.10 430.63, 565.96 431.39, 570.87 430.99 C 575.78 430.59, 578.49 429.01, 583.34 425.40 C 588.20 421.80, 590.70 418.67, 595.17 412.99 C 599.63 407.30, 601.95 402.96, 605.67 396.99 C 609.39 391.02, 611.42 387.14, 613.76 383.14 C 616.10 379.13, 616.73 377.62, 617.36 376.97 C 617.99 376.32, 616.75 377.00, 616.91 379.87 C 617.07 382.74, 617.48 385.88, 618.16 391.33 C 618.83 396.78, 619.01 401.06, 620.29 407.12 C 621.56 413.17, 622.22 416.92, 624.53 421.61 C 626.85 426.30, 628.33 428.84, 631.85 430.57 C 635.37 432.30, 638.36 431.52, 642.13 430.26 C 645.90 429.01, 648.07 427.05, 650.69 424.30 C 653.31 421.56, 654.99 418.62, 655.22 416.54 C 655.46 414.45, 653.72 413.32, 651.87 413.90 C 650.01 414.48, 648.35 417.27, 645.94 419.43 C 643.53 421.58, 642.17 423.40, 639.82 424.68 C 637.46 425.96, 636.31 426.87, 634.17 425.83 C 632.03 424.79, 630.83 423.43, 629.10 419.48 C 627.38 415.53, 626.63 411.83, 625.54 406.06 C 624.45 400.30, 624.33 396.16, 623.64 390.65 C 622.96 385.14, 623.56 381.81, 622.10 378.51 C 620.65 375.22, 618.85 373.74, 616.39 374.16 C 613.92 374.58, 612.65 376.47, 609.79 380.60 C 606.93 384.73, 605.66 388.83, 602.10 394.81 C 598.54 400.80, 596.25 405.05, 592.01 410.52 C 587.76 415.99, 585.20 418.85, 580.90 422.15 C 576.59 425.46, 574.48 426.56, 570.48 427.05 C 566.49 427.53, 564.60 427.28, 560.91 424.56 C 557.23 421.85, 555.14 419.59, 552.05 413.48 C 548.95 407.37, 547.48 403.01, 545.44 394.03 C 543.40 385.04, 542.57 379.34, 541.83 368.54 C 541.08 357.75, 541.10 351.29, 541.72 340.05 C 542.33 328.81, 543.10 322.54, 544.92 312.33 C 546.74 302.13, 548.15 296.95, 550.82 289.02 C 553.49 281.09, 555.36 277.64, 558.27 272.70 C 561.18 267.76, 563.17 266.44, 565.37 264.32 C 567.57 262.21, 568.13 262.01, 569.27 262.13 C 570.42 262.25, 570.38 262.71, 571.09 264.92 C 571.80 267.13, 572.70 269.02, 572.81 273.19 C 572.93 277.37, 572.80 280.39, 571.67 285.79 C 570.53 291.19, 569.59 294.51, 567.13 300.18 C 564.67 305.84, 562.90 308.94, 559.36 314.10 C 555.81 319.26, 553.64 321.71, 549.39 325.99 C 545.14 330.27, 542.69 332.21, 538.11 335.52 C 533.53 338.83, 531.00 340.15, 526.50 342.54 C 522.01 344.92, 519.65 345.69, 515.62 347.44 C 511.59 349.20, 509.49 349.62, 506.34 351.31 C 503.20 353.01, 501.80 353.79, 499.89 355.92 C 497.99 358.05, 497.48 359.37, 496.82 361.95 C 496.15 364.53, 496.10 365.90, 496.55 368.80 C 496.99 371.70, 497.86 373.21, 499.04 376.45 C 500.23 379.68, 501.23 381.51, 502.48 384.99 C 503.74 388.46, 504.33 390.60, 505.32 393.84 C 506.32 397.07, 506.35 399.00, 507.46 401.16 C 508.57 403.32, 509.65 403.96, 510.88 404.65 C 512.11 405.34, 513.00 405.25, 513.60 404.61 C 514.20 403.97, 514.42 403.24, 513.88 401.47 C 513.34 399.70, 512.45 398.52, 510.90 395.75 C 509.36 392.99, 508.02 391.23, 506.14 387.66 C 504.26 384.08, 503.32 381.70, 501.52 377.88 C 499.72 374.06, 499.02 371.77, 497.16 368.57 C 495.30 365.37, 494.44 363.61, 492.21 361.86 C 489.97 360.12, 488.37 359.48, 485.99 359.85 C 483.62 360.23, 482.31 360.79, 480.33 363.74 C 478.35 366.70, 477.96 369.14, 476.09 374.64 C 474.22 380.14, 473.20 383.94, 470.97 391.23 C 468.73 398.53, 467.37 403.42, 464.93 411.10 C 462.48 418.78, 460.99 423.51, 458.73 429.65 C 456.48 435.79, 454.90 438.75, 453.63 441.80 C 452.37 444.84, 453.00 445.76, 452.43 444.88 C 451.85 444.01, 451.39 442.59, 450.78 437.43 C 450.17 432.26, 449.68 427.95, 449.38 419.05 C 449.09 410.15, 449.17 404.09, 449.31 392.93 C 449.46 381.78, 449.68 375.08, 450.10 363.27 C 450.52 351.45, 450.87 344.96, 451.41 333.87 C 451.95 322.77, 452.33 317.07, 452.80 307.78 C 453.27 298.50, 453.43 294.11, 453.76 287.44 C 454.08 280.76, 454.53 278.32, 454.42 274.41 C 454.31 270.51, 454.10 269.21, 453.22 267.93 C 452.33 266.65, 450.80 266.73, 449.99 268.03" style="stroke: black; fill: black;"/><path d="M 642.29,316.58 C 642.86 315.41, 643.01 314.63, 642.79 314.57 C 642.57 314.50, 641.90 315.23, 641.19 316.25 C 640.48 317.27, 639.78 318.56, 639.24 319.68 C 638.70 320.80, 638.35 321.69, 638.49 321.84 C 638.63 321.99, 639.18 321.47, 639.94 320.42 C 640.70 319.37, 641.72 317.75, 642.29 316.58" style="stroke: black; fill: black;"/><path d="M 694.30,375.93 C 693.60 375.34, 693.35 374.84, 691.88 375.08 C 690.41 375.32, 688.74 375.12, 686.95 377.14 C 685.16 379.15, 684.35 381.15, 682.93 385.15 C 681.51 389.15, 680.68 391.87, 679.83 397.13 C 678.99 402.39, 678.40 405.81, 678.70 411.46 C 679.01 417.11, 679.33 420.55, 681.38 425.36 C 683.42 430.18, 685.06 432.84, 688.94 435.52 C 692.81 438.20, 695.78 439.01, 700.76 438.76 C 705.75 438.52, 708.84 437.39, 713.84 434.30 C 718.85 431.22, 721.67 428.63, 725.80 423.36 C 729.93 418.08, 732.04 414.50, 734.51 407.93 C 736.97 401.36, 737.94 397.20, 738.12 390.51 C 738.30 383.81, 737.71 379.96, 735.41 374.46 C 733.11 368.96, 730.92 366.19, 726.61 363.02 C 722.30 359.84, 719.04 358.94, 713.88 358.59 C 708.71 358.23, 705.32 359.23, 700.78 361.23 C 696.24 363.22, 693.57 365.08, 691.17 368.55 C 688.76 372.02, 687.83 375.03, 688.75 378.56 C 689.67 382.10, 691.75 384.22, 695.77 386.22 C 699.79 388.22, 702.82 388.52, 708.85 388.56 C 714.89 388.60, 718.67 387.99, 725.96 386.42 C 733.25 384.85, 738.09 383.15, 745.30 380.73 C 752.51 378.31, 756.45 376.63, 762.00 374.33 C 767.55 372.03, 771.09 370.83, 773.05 369.23 C 775.01 367.64, 774.27 366.00, 771.79 366.35 C 769.31 366.69, 766.19 368.81, 760.65 370.95 C 755.11 373.10, 751.20 374.78, 744.09 377.08 C 736.99 379.38, 732.17 381.09, 725.15 382.45 C 718.12 383.81, 714.36 384.11, 708.96 383.88 C 703.56 383.65, 701.05 382.66, 698.15 381.31 C 695.26 379.96, 694.91 378.97, 694.48 377.12 C 694.04 375.27, 694.27 374.25, 695.99 372.05 C 697.70 369.85, 699.51 367.86, 703.04 366.12 C 706.57 364.37, 709.45 363.25, 713.66 363.32 C 717.87 363.40, 720.48 363.97, 724.09 366.51 C 727.70 369.05, 729.67 371.25, 731.70 376.02 C 733.74 380.80, 734.44 384.30, 734.27 390.40 C 734.10 396.51, 733.21 400.47, 730.87 406.55 C 728.53 412.62, 726.43 416.00, 722.56 420.78 C 718.69 425.56, 715.91 427.81, 711.51 430.46 C 707.10 433.10, 704.47 433.79, 700.52 434.00 C 696.57 434.21, 694.67 433.62, 691.77 431.51 C 688.86 429.41, 687.57 427.52, 686.01 423.48 C 684.44 419.43, 684.00 416.30, 683.94 411.28 C 683.88 406.26, 684.47 402.94, 685.70 398.37 C 686.93 393.80, 688.30 391.46, 690.10 388.44 C 691.90 385.42, 693.56 384.94, 694.69 383.25 C 695.83 381.56, 695.62 381.03, 695.77 379.99 C 695.91 378.95, 695.71 378.86, 695.42 378.05 C 695.12 377.24, 695.01 376.53, 694.30 375.93" style="stroke: black; fill: black;"/><path d="M 902.67,283.73 C 901.82 284.88, 901.66 285.84, 901.50 289.55 C 901.34 293.26, 901.81 295.56, 901.88 302.27 C 901.95 308.99, 902.04 313.46, 901.83 323.12 C 901.63 332.77, 901.39 338.77, 900.85 350.54 C 900.30 362.32, 899.87 369.36, 899.11 381.98 C 898.35 394.60, 897.92 401.84, 897.05 413.64 C 896.17 425.44, 895.62 432.11, 894.74 440.98 C 893.86 449.86, 892.93 454.11, 892.65 458.03 C 892.36 461.94, 893.65 462.49, 893.32 460.56 C 892.99 458.63, 892.13 455.83, 891.00 448.36 C 889.86 440.89, 889.07 434.80, 887.65 423.20 C 886.22 411.60, 885.22 403.92, 883.86 390.34 C 882.50 376.77, 881.75 369.02, 880.84 355.33 C 879.92 341.65, 879.60 334.38, 879.28 321.92 C 878.95 309.46, 878.91 303.21, 879.21 293.02 C 879.51 282.83, 879.77 278.12, 880.79 270.98 C 881.82 263.84, 882.67 261.03, 884.33 257.34 C 885.99 253.65, 886.80 253.31, 889.09 252.55 C 891.38 251.78, 892.25 252.25, 895.78 253.53 C 899.31 254.81, 901.76 256.33, 906.74 258.96 C 911.71 261.59, 914.89 263.67, 920.65 266.69 C 926.40 269.71, 929.76 271.51, 935.51 274.08 C 941.26 276.65, 944.27 277.94, 949.39 279.55 C 954.51 281.17, 956.99 281.91, 961.09 282.15 C 965.20 282.39, 967.39 282.09, 969.92 280.74 C 972.45 279.40, 973.02 277.57, 973.75 275.44 C 974.48 273.31, 974.29 271.65, 973.57 270.10 C 972.84 268.55, 971.37 267.66, 970.14 267.69 C 968.91 267.73, 967.77 269.31, 967.40 270.26 C 967.02 271.21, 967.99 271.74, 968.27 272.45 C 968.55 273.16, 968.96 273.21, 968.80 273.81 C 968.63 274.42, 968.94 274.92, 967.44 275.47 C 965.94 276.03, 964.67 276.65, 961.32 276.59 C 957.97 276.52, 955.49 276.43, 950.67 275.15 C 945.86 273.87, 942.83 272.66, 937.24 270.19 C 931.66 267.71, 928.39 265.88, 922.76 262.77 C 917.12 259.67, 914.15 257.46, 909.07 254.65 C 903.99 251.84, 901.67 250.00, 897.34 248.73 C 893.01 247.45, 890.69 246.86, 887.42 248.29 C 884.14 249.72, 882.85 251.41, 880.96 255.88 C 879.08 260.35, 878.81 263.21, 878.00 270.63 C 877.20 278.05, 877.10 282.70, 876.96 292.97 C 876.82 303.24, 876.91 309.48, 877.30 321.98 C 877.69 334.48, 878.02 341.75, 878.90 355.46 C 879.79 369.17, 880.51 376.94, 881.71 390.55 C 882.91 404.16, 883.71 411.85, 884.92 423.51 C 886.13 435.17, 886.56 441.21, 887.76 448.86 C 888.95 456.51, 889.28 459.81, 890.90 461.77 C 892.51 463.73, 894.53 462.77, 895.84 458.66 C 897.15 454.55, 896.75 450.19, 897.44 441.22 C 898.13 432.25, 898.51 425.62, 899.27 413.79 C 900.04 401.97, 900.48 394.74, 901.28 382.11 C 902.08 369.49, 902.55 362.45, 903.28 350.68 C 904.00 338.90, 904.35 332.90, 904.90 323.24 C 905.45 313.58, 905.65 309.09, 906.03 302.37 C 906.42 295.65, 906.89 293.35, 906.84 289.62 C 906.79 285.90, 906.61 284.94, 905.77 283.76 C 904.94 282.58, 903.53 282.57, 902.67 283.73" style="stroke: black; fill: black;"/><path d="M 862.64,354.49 C 862.92 355.96, 863.40 357.95, 866.06 359.23 C 868.71 360.52, 870.83 360.88, 875.90 360.91 C 880.98 360.95, 884.46 360.79, 891.44 359.41 C 898.41 358.03, 902.76 356.80, 910.78 354.00 C 918.80 351.20, 923.43 349.18, 931.55 345.40 C 939.67 341.62, 944.01 339.27, 951.36 335.11 C 958.72 330.96, 962.44 328.53, 968.31 324.63 C 974.18 320.73, 977.23 318.64, 980.73 315.60 C 984.22 312.57, 985.44 310.89, 985.78 309.46 C 986.13 308.03, 984.07 306.86, 982.44 308.46 C 980.81 310.05, 979.77 312.15, 977.62 317.46 C 975.46 322.76, 973.84 326.66, 971.66 334.97 C 969.48 343.28, 968.09 348.87, 966.72 359.00 C 965.35 369.13, 964.75 375.31, 964.80 385.60 C 964.86 395.89, 965.22 401.65, 966.98 410.47 C 968.73 419.28, 970.05 423.71, 973.57 429.65 C 977.09 435.59, 979.54 438.10, 984.57 440.18 C 989.60 442.26, 992.95 442.17, 998.71 440.05 C 1004.48 437.94, 1007.64 435.50, 1013.41 429.61 C 1019.18 423.72, 1022.23 419.54, 1027.56 410.61 C 1032.90 401.68, 1035.60 395.82, 1040.08 384.97 C 1044.55 374.13, 1046.69 367.48, 1049.93 356.38 C 1053.16 345.27, 1054.49 339.12, 1056.24 329.44 C 1058.00 319.76, 1058.46 314.97, 1058.71 307.98 C 1058.95 300.98, 1058.98 298.10, 1057.45 294.48 C 1055.92 290.86, 1053.86 289.74, 1051.05 289.88 C 1048.25 290.02, 1046.00 291.49, 1043.44 295.17 C 1040.87 298.85, 1039.90 301.90, 1038.24 308.28 C 1036.59 314.67, 1035.93 318.80, 1035.15 327.10 C 1034.37 335.41, 1034.08 340.48, 1034.35 349.81 C 1034.61 359.15, 1035.00 364.50, 1036.46 373.77 C 1037.93 383.03, 1039.01 388.05, 1041.69 396.14 C 1044.38 404.24, 1046.11 408.17, 1049.89 414.25 C 1053.66 420.33, 1055.91 422.95, 1060.58 426.54 C 1065.25 430.13, 1068.02 431.55, 1073.22 432.20 C 1078.42 432.84, 1081.44 432.30, 1086.58 429.76 C 1091.72 427.21, 1094.27 424.90, 1098.92 419.47 C 1103.57 414.03, 1105.80 410.35, 1109.84 402.60 C 1113.88 394.85, 1115.81 389.84, 1119.13 380.71 C 1122.45 371.57, 1123.91 365.95, 1126.46 356.92 C 1129.00 347.89, 1130.08 342.96, 1131.85 335.57 C 1133.63 328.18, 1134.62 324.69, 1135.34 319.98 C 1136.06 315.27, 1136.11 313.19, 1135.45 312.02 C 1134.78 310.85, 1132.67 311.12, 1132.02 314.12 C 1131.36 317.11, 1131.95 320.10, 1132.15 326.99 C 1132.35 333.88, 1132.45 338.76, 1133.00 348.55 C 1133.54 358.35, 1133.91 364.70, 1134.86 375.99 C 1135.82 387.27, 1136.36 393.98, 1137.76 404.98 C 1139.17 415.97, 1140.00 421.86, 1141.89 430.97 C 1143.78 440.08, 1144.79 444.34, 1147.22 450.53 C 1149.66 456.71, 1150.81 459.49, 1154.06 461.88 C 1157.30 464.27, 1160.06 464.58, 1163.46 462.48 C 1166.86 460.37, 1168.23 457.70, 1171.06 451.36 C 1173.88 445.03, 1175.05 440.57, 1177.59 430.80 C 1180.12 421.02, 1181.38 414.66, 1183.73 402.50 C 1186.09 390.34, 1187.30 382.89, 1189.38 369.99 C 1191.46 357.08, 1192.42 349.94, 1194.13 337.98 C 1195.83 326.01, 1196.67 319.69, 1197.90 310.16 C 1199.12 300.62, 1199.87 296.04, 1200.26 290.30 C 1200.65 284.57, 1200.51 282.49, 1199.84 281.47 C 1199.18 280.45, 1197.54 281.31, 1196.94 285.20 C 1196.33 289.09, 1196.54 292.88, 1196.83 300.94 C 1197.12 308.99, 1197.35 314.74, 1198.39 325.47 C 1199.42 336.20, 1199.96 342.82, 1202.00 354.60 C 1204.05 366.37, 1205.24 373.05, 1208.62 384.34 C 1212.00 395.62, 1214.11 401.46, 1218.90 411.01 C 1223.70 420.55, 1226.61 424.97, 1232.60 432.06 C 1238.59 439.15, 1242.16 442.21, 1248.86 446.46 C 1255.55 450.71, 1259.23 452.36, 1266.08 453.30 C 1272.92 454.25, 1277.12 453.02, 1283.08 451.18 C 1289.03 449.33, 1291.84 447.07, 1295.86 444.08 C 1299.88 441.10, 1302.18 438.28, 1303.17 436.24 C 1304.17 434.21, 1302.79 433.00, 1300.84 433.90 C 1298.89 434.81, 1297.21 438.02, 1293.42 440.76 C 1289.63 443.49, 1287.29 445.71, 1281.90 447.59 C 1276.51 449.46, 1272.79 450.82, 1266.47 450.13 C 1260.16 449.43, 1256.73 448.03, 1250.33 444.10 C 1243.93 440.16, 1240.35 437.28, 1234.47 430.46 C 1228.59 423.64, 1225.66 419.34, 1220.92 409.99 C 1216.17 400.64, 1214.05 394.86, 1210.73 383.71 C 1207.42 372.55, 1206.22 365.90, 1204.33 354.21 C 1202.44 342.51, 1202.06 335.90, 1201.30 325.23 C 1200.54 314.56, 1200.56 308.85, 1200.52 300.86 C 1200.48 292.87, 1201.51 289.20, 1201.10 285.30 C 1200.68 281.40, 1199.27 280.42, 1198.45 281.37 C 1197.64 282.31, 1197.62 284.32, 1197.02 290.02 C 1196.42 295.72, 1196.44 300.34, 1195.44 309.87 C 1194.44 319.40, 1193.65 325.73, 1192.02 337.69 C 1190.39 349.64, 1189.42 356.78, 1187.30 369.65 C 1185.18 382.52, 1183.93 389.96, 1181.42 402.03 C 1178.90 414.11, 1177.49 420.46, 1174.74 430.02 C 1172.00 439.58, 1170.43 444.02, 1167.70 449.83 C 1164.97 455.64, 1163.35 457.27, 1161.10 459.07 C 1158.86 460.88, 1158.66 460.81, 1156.48 458.85 C 1154.29 456.90, 1152.59 455.01, 1150.18 449.32 C 1147.78 443.63, 1146.46 439.35, 1144.46 430.42 C 1142.46 421.49, 1141.58 415.59, 1140.18 404.67 C 1138.77 393.74, 1138.23 387.04, 1137.44 375.79 C 1136.65 364.54, 1136.46 358.19, 1136.24 348.43 C 1136.02 338.67, 1136.19 333.82, 1136.35 326.98 C 1136.50 320.13, 1137.58 317.27, 1137.01 314.19 C 1136.45 311.12, 1134.66 310.58, 1133.51 311.59 C 1132.36 312.60, 1132.22 314.59, 1131.26 319.25 C 1130.30 323.90, 1130.23 327.49, 1128.72 334.87 C 1127.21 342.25, 1126.16 347.19, 1123.71 356.16 C 1121.25 365.13, 1119.76 370.73, 1116.43 379.72 C 1113.10 388.71, 1111.10 393.64, 1107.06 401.12 C 1103.01 408.59, 1100.65 412.08, 1096.20 417.10 C 1091.75 422.11, 1089.32 423.97, 1084.82 426.19 C 1080.32 428.42, 1078.11 428.74, 1073.70 428.23 C 1069.29 427.72, 1067.00 426.78, 1062.77 423.64 C 1058.55 420.50, 1056.25 418.23, 1052.59 412.54 C 1048.92 406.86, 1047.11 403.06, 1044.44 395.22 C 1041.77 387.38, 1040.67 382.42, 1039.25 373.33 C 1037.83 364.23, 1037.45 358.92, 1037.33 349.75 C 1037.21 340.58, 1037.60 335.54, 1038.64 327.49 C 1039.68 319.44, 1040.70 315.41, 1042.54 309.51 C 1044.38 303.60, 1046.04 301.18, 1047.84 297.96 C 1049.64 294.73, 1050.39 293.83, 1051.56 293.40 C 1052.72 292.98, 1052.83 292.94, 1053.64 295.84 C 1054.45 298.74, 1055.58 301.29, 1055.60 307.93 C 1055.63 314.56, 1055.35 319.45, 1053.77 329.01 C 1052.19 338.57, 1050.88 344.72, 1047.71 355.73 C 1044.53 366.74, 1042.36 373.36, 1037.87 384.06 C 1033.38 394.75, 1030.59 400.54, 1025.25 409.21 C 1019.92 417.88, 1016.73 421.87, 1011.18 427.39 C 1005.63 432.91, 1002.57 434.88, 997.50 436.81 C 992.44 438.74, 990.12 438.79, 985.87 437.04 C 981.61 435.29, 979.46 433.50, 976.22 428.07 C 972.99 422.65, 971.43 418.41, 969.68 409.92 C 967.93 401.42, 967.48 395.69, 967.47 385.59 C 967.45 375.49, 968.04 369.34, 969.60 359.42 C 971.17 349.51, 972.78 344.02, 975.28 336.01 C 977.79 328.00, 979.88 324.47, 982.13 319.37 C 984.39 314.28, 986.18 312.93, 986.56 310.53 C 986.94 308.13, 985.79 307.05, 984.04 307.36 C 982.28 307.68, 981.32 309.22, 977.78 312.10 C 974.24 314.99, 971.92 317.72, 966.33 321.79 C 960.75 325.86, 957.06 328.30, 949.85 332.46 C 942.64 336.63, 938.30 338.97, 930.27 342.63 C 922.24 346.29, 917.61 348.24, 909.70 350.75 C 901.79 353.26, 897.43 354.30, 890.74 355.19 C 884.04 356.09, 880.64 355.70, 876.21 355.22 C 871.78 354.74, 870.91 353.46, 868.59 352.79 C 866.28 352.12, 865.84 351.53, 864.65 351.87 C 863.46 352.21, 862.35 353.01, 862.64 354.49" style="stroke: black; fill: black;"/></svg>