<svg xmlns="http://www.w3.org/2000/svg" id="canvas" viewBox="216.987 305.625 910.169 70.814"><path d="M 230.63,320.08 C 230.76 319.95, 230.79 319.64, 230.62 319.43 C 230.45 319.23, 230.21 319.05, 229.78 319.06 C 229.35 319.08, 229.10 319.00, 228.48 319.50 C 227.86 320.00, 227.46 320.40, 226.68 321.55 C 225.90 322.70, 225.43 323.48, 224.59 325.25 C 223.76 327.03, 223.24 328.08, 222.50 330.44 C 221.75 332.80, 221.36 334.21, 220.88 337.05 C 220.40 339.89, 220.21 341.59, 220.08 344.62 C 219.95 347.66, 219.92 349.29, 220.23 352.24 C 220.55 355.18, 220.86 356.71, 221.67 359.36 C 222.47 362.00, 223.05 363.34, 224.26 365.46 C 225.46 367.59, 226.18 368.55, 227.69 369.99 C 229.19 371.44, 230.13 372.00, 231.79 372.69 C 233.46 373.37, 234.37 373.51, 236.01 373.41 C 237.65 373.31, 238.56 373.02, 240.00 372.20 C 241.44 371.37, 242.17 370.68, 243.21 369.29 C 244.25 367.90, 244.71 366.93, 245.20 365.25 C 245.69 363.58, 245.69 362.41, 245.66 360.91 C 245.62 359.40, 245.35 358.70, 245.03 357.75 C 244.70 356.80, 244.28 356.45, 244.01 356.17 C 243.74 355.88, 243.64 355.96, 243.66 356.33 C 243.69 356.69, 243.99 357.06, 244.12 357.97 C 244.25 358.89, 244.36 359.52, 244.31 360.90 C 244.26 362.28, 244.30 363.35, 243.87 364.87 C 243.44 366.40, 243.06 367.27, 242.16 368.52 C 241.27 369.78, 240.64 370.41, 239.39 371.16 C 238.14 371.91, 237.37 372.19, 235.94 372.29 C 234.50 372.38, 233.71 372.28, 232.22 371.65 C 230.74 371.02, 229.88 370.51, 228.50 369.15 C 227.12 367.79, 226.45 366.90, 225.33 364.86 C 224.21 362.83, 223.66 361.54, 222.90 358.98 C 222.13 356.43, 221.81 354.96, 221.51 352.10 C 221.21 349.24, 221.24 347.65, 221.40 344.69 C 221.56 341.73, 221.80 340.06, 222.30 337.30 C 222.81 334.54, 223.18 333.17, 223.92 330.89 C 224.66 328.61, 225.18 327.62, 226.00 325.92 C 226.82 324.23, 227.33 323.51, 228.01 322.42 C 228.69 321.32, 229.01 320.94, 229.41 320.45 C 229.80 319.96, 229.87 320.06, 229.98 319.95 C 230.09 319.84, 229.96 319.88, 229.96 319.91 C 229.97 319.94, 229.86 320.08, 229.99 320.12 C 230.13 320.15, 230.51 320.22, 230.63 320.08" style="stroke: black; fill: black;"/><path d="M 222.25,349.10 C 222.63 349.25, 223.05 349.38, 224.14 349.38 C 225.23 349.37, 226.03 349.37, 227.69 349.07 C 229.36 348.77, 230.43 348.54, 232.46 347.88 C 234.49 347.22, 235.68 346.71, 237.84 345.76 C 240.00 344.82, 241.22 344.22, 243.28 343.17 C 245.33 342.12, 246.37 341.52, 248.11 340.52 C 249.86 339.52, 250.75 339.00, 252.00 338.19 C 253.24 337.38, 253.80 336.91, 254.35 336.49 C 254.90 336.06, 254.86 335.87, 254.74 336.06 C 254.63 336.24, 254.27 336.48, 253.77 337.40 C 253.26 338.32, 252.81 339.08, 252.23 340.68 C 251.65 342.28, 251.34 343.39, 250.88 345.41 C 250.42 347.43, 250.16 348.69, 249.92 350.76 C 249.69 352.83, 249.60 354.06, 249.70 355.75 C 249.81 357.44, 250.00 358.29, 250.46 359.21 C 250.92 360.13, 251.26 360.37, 252.02 360.35 C 252.77 360.34, 253.29 360.02, 254.23 359.14 C 255.16 358.25, 255.74 357.45, 256.70 355.93 C 257.66 354.41, 258.14 353.30, 259.03 351.54 C 259.93 349.78, 260.41 348.69, 261.17 347.13 C 261.94 345.57, 262.37 344.77, 262.87 343.73 C 263.36 342.69, 263.50 342.22, 263.65 341.94 C 263.79 341.65, 263.69 341.75, 263.59 342.31 C 263.49 342.87, 263.31 343.43, 263.15 344.73 C 262.99 346.03, 262.85 347.01, 262.78 348.80 C 262.71 350.58, 262.70 351.78, 262.79 353.66 C 262.88 355.53, 262.91 356.64, 263.23 358.16 C 263.54 359.68, 263.75 360.39, 264.36 361.27 C 264.97 362.16, 265.43 362.49, 266.30 362.59 C 267.16 362.68, 267.68 362.52, 268.69 361.73 C 269.70 360.95, 270.27 360.25, 271.33 358.64 C 272.39 357.03, 272.94 355.98, 274.01 353.69 C 275.08 351.39, 275.63 349.97, 276.67 347.17 C 277.71 344.37, 278.24 342.70, 279.21 339.69 C 280.18 336.67, 280.68 335.00, 281.51 332.10 C 282.33 329.19, 282.69 327.68, 283.34 325.16 C 283.98 322.65, 284.33 321.41, 284.73 319.54 C 285.13 317.67, 285.28 316.72, 285.34 315.83 C 285.39 314.93, 285.22 314.74, 285.02 315.08 C 284.81 315.41, 284.62 315.89, 284.30 317.51 C 283.98 319.12, 283.71 320.42, 283.42 323.15 C 283.13 325.89, 283.07 327.77, 282.86 331.19 C 282.65 334.60, 282.55 336.72, 282.36 340.22 C 282.17 343.73, 282.01 345.68, 281.91 348.72 C 281.81 351.77, 281.78 353.34, 281.86 355.45 C 281.94 357.56, 282.09 358.39, 282.31 359.26 C 282.53 360.14, 282.74 360.21, 282.98 359.83 C 283.21 359.44, 283.38 358.70, 283.49 357.33 C 283.60 355.96, 283.64 354.84, 283.53 352.97 C 283.42 351.11, 283.21 349.86, 282.94 348.01 C 282.66 346.17, 282.51 345.10, 282.16 343.76 C 281.82 342.42, 281.57 341.90, 281.20 341.33 C 280.84 340.76, 280.54 340.77, 280.35 340.91 C 280.16 341.05, 280.05 341.48, 280.26 342.04 C 280.46 342.61, 280.68 343.10, 281.35 343.73 C 282.03 344.36, 282.57 344.74, 283.62 345.19 C 284.67 345.63, 285.36 345.81, 286.60 345.94 C 287.84 346.07, 288.56 346.01, 289.80 345.84 C 291.03 345.66, 291.65 345.46, 292.78 345.08 C 293.92 344.69, 294.50 344.43, 295.48 343.92 C 296.46 343.40, 296.95 343.01, 297.68 342.49 C 298.41 341.97, 298.72 341.58, 299.15 341.31 C 299.57 341.05, 299.62 340.91, 299.78 341.17 C 299.94 341.44, 299.91 341.72, 299.95 342.64 C 299.99 343.56, 299.95 344.26, 299.99 345.76 C 300.02 347.26, 300.02 348.34, 300.13 350.16 C 300.24 351.97, 300.32 353.15, 300.53 354.85 C 300.75 356.55, 300.87 357.50, 301.20 358.64 C 301.54 359.78, 301.78 360.21, 302.19 360.55 C 302.60 360.88, 302.88 360.84, 303.25 360.33 C 303.62 359.82, 303.81 359.19, 304.04 358.00 C 304.27 356.80, 304.35 355.87, 304.42 354.37 C 304.49 352.86, 304.39 351.84, 304.38 350.49 C 304.38 349.13, 304.34 348.38, 304.40 347.59 C 304.46 346.80, 304.45 346.59, 304.68 346.54 C 304.91 346.49, 305.03 346.83, 305.54 347.34 C 306.06 347.86, 306.38 348.39, 307.25 349.10 C 308.13 349.82, 308.71 350.37, 309.91 350.92 C 311.11 351.47, 311.84 351.72, 313.23 351.86 C 314.62 351.99, 315.42 351.93, 316.87 351.59 C 318.32 351.25, 319.13 350.96, 320.47 350.15 C 321.82 349.34, 322.53 348.71, 323.59 347.52 C 324.65 346.33, 325.14 345.53, 325.78 344.19 C 326.41 342.85, 326.62 342.01, 326.76 340.80 C 326.91 339.60, 326.84 338.99, 326.49 338.16 C 326.15 337.33, 325.78 336.90, 325.03 336.66 C 324.29 336.43, 323.70 336.47, 322.78 336.98 C 321.87 337.49, 321.29 337.99, 320.44 339.22 C 319.59 340.44, 319.12 341.36, 318.54 343.10 C 317.95 344.84, 317.70 345.97, 317.52 347.90 C 317.34 349.84, 317.33 351.01, 317.65 352.77 C 317.97 354.54, 318.30 355.45, 319.11 356.72 C 319.92 357.99, 320.46 358.52, 321.69 359.13 C 322.93 359.74, 323.72 359.91, 325.27 359.79 C 326.81 359.67, 327.76 359.39, 329.44 358.54 C 331.11 357.70, 332.03 356.99, 333.65 355.59 C 335.26 354.18, 336.12 353.27, 337.52 351.54 C 338.92 349.81, 339.61 348.71, 340.64 346.94 C 341.67 345.16, 342.05 344.19, 342.64 342.68 C 343.24 341.17, 343.44 340.45, 343.63 339.39 C 343.82 338.33, 343.77 337.90, 343.58 337.37 C 343.39 336.84, 343.11 336.69, 342.67 336.75 C 342.23 336.81, 341.87 337.02, 341.39 337.67 C 340.90 338.31, 340.59 338.83, 340.25 339.97 C 339.90 341.12, 339.74 341.97, 339.67 343.39 C 339.60 344.81, 339.66 345.63, 339.88 347.09 C 340.10 348.54, 340.28 349.33, 340.76 350.67 C 341.23 352.01, 341.55 352.73, 342.25 353.80 C 342.96 354.86, 343.42 355.27, 344.28 355.99 C 345.14 356.71, 345.61 357.05, 346.55 357.39 C 347.49 357.74, 348.03 357.79, 348.96 357.73 C 349.89 357.67, 350.43 357.53, 351.20 357.08 C 351.97 356.63, 352.38 356.24, 352.79 355.49 C 353.21 354.73, 353.36 354.21, 353.27 353.30 C 353.18 352.39, 352.97 351.83, 352.33 350.93 C 351.70 350.02, 351.22 349.49, 350.10 348.78 C 348.98 348.08, 348.18 347.76, 346.74 347.39 C 345.30 347.02, 344.37 346.93, 342.89 346.93 C 341.40 346.92, 340.59 347.07, 339.32 347.35 C 338.06 347.63, 337.40 347.89, 336.57 348.31 C 335.75 348.73, 335.40 348.99, 335.18 349.45 C 334.95 349.92, 335.04 350.26, 335.45 350.63 C 335.85 351.00, 336.23 351.19, 337.19 351.29 C 338.15 351.39, 338.83 351.34, 340.25 351.15 C 341.67 350.96, 342.64 350.75, 344.28 350.33 C 345.92 349.91, 346.80 349.59, 348.44 349.06 C 350.09 348.54, 350.95 348.26, 352.51 347.71 C 354.08 347.16, 354.95 346.85, 356.27 346.32 C 357.59 345.79, 358.17 345.46, 359.12 345.06 C 360.06 344.65, 360.64 344.53, 360.99 344.29 C 361.34 344.06, 361.32 343.91, 360.88 343.87 C 360.45 343.84, 359.81 343.87, 358.80 344.11 C 357.79 344.36, 357.16 344.64, 355.82 345.10 C 354.47 345.57, 353.63 345.91, 352.07 346.43 C 350.52 346.95, 349.66 347.23, 348.03 347.71 C 346.40 348.18, 345.52 348.44, 343.91 348.80 C 342.31 349.16, 341.35 349.28, 340.00 349.51 C 338.66 349.74, 338.03 349.84, 337.19 349.95 C 336.34 350.06, 336.08 350.06, 335.77 350.04 C 335.47 350.01, 335.41 349.96, 335.65 349.83 C 335.90 349.70, 336.22 349.61, 337.01 349.38 C 337.79 349.14, 338.41 348.87, 339.58 348.67 C 340.76 348.46, 341.51 348.32, 342.87 348.35 C 344.23 348.37, 345.08 348.48, 346.38 348.81 C 347.68 349.14, 348.38 349.41, 349.36 349.99 C 350.34 350.57, 350.73 351.02, 351.29 351.71 C 351.84 352.40, 352.02 352.80, 352.12 353.44 C 352.22 354.08, 352.09 354.40, 351.79 354.93 C 351.49 355.45, 351.19 355.72, 350.60 356.04 C 350.02 356.37, 349.61 356.50, 348.88 356.56 C 348.15 356.61, 347.72 356.61, 346.95 356.32 C 346.19 356.03, 345.78 355.73, 345.05 355.09 C 344.32 354.45, 343.91 354.09, 343.30 353.12 C 342.70 352.15, 342.42 351.48, 342.02 350.24 C 341.62 348.99, 341.45 348.25, 341.29 346.90 C 341.13 345.55, 341.13 344.79, 341.23 343.49 C 341.34 342.19, 341.58 341.45, 341.83 340.40 C 342.08 339.35, 342.28 338.89, 342.48 338.25 C 342.69 337.61, 342.76 337.36, 342.85 337.20 C 342.95 337.04, 343.00 337.07, 342.95 337.46 C 342.90 337.85, 342.90 338.20, 342.61 339.15 C 342.32 340.10, 342.13 340.79, 341.50 342.20 C 340.87 343.62, 340.49 344.56, 339.47 346.24 C 338.45 347.93, 337.76 348.98, 336.41 350.63 C 335.05 352.28, 334.22 353.16, 332.70 354.50 C 331.17 355.84, 330.31 356.50, 328.80 357.32 C 327.29 358.14, 326.47 358.43, 325.15 358.60 C 323.82 358.78, 323.17 358.68, 322.16 358.19 C 321.15 357.70, 320.72 357.26, 320.08 356.14 C 319.44 355.01, 319.18 354.18, 318.97 352.56 C 318.75 350.95, 318.78 349.85, 318.99 348.05 C 319.20 346.26, 319.47 345.20, 320.01 343.59 C 320.55 341.99, 320.99 341.15, 321.67 340.02 C 322.36 338.89, 322.79 338.46, 323.42 337.94 C 324.05 337.42, 324.38 337.33, 324.81 337.44 C 325.24 337.54, 325.44 337.83, 325.59 338.47 C 325.74 339.10, 325.77 339.59, 325.57 340.62 C 325.36 341.64, 325.17 342.41, 324.57 343.61 C 323.97 344.81, 323.54 345.54, 322.58 346.62 C 321.62 347.70, 320.97 348.26, 319.77 349.00 C 318.57 349.74, 317.85 350.01, 316.57 350.31 C 315.29 350.62, 314.58 350.67, 313.38 350.53 C 312.17 350.38, 311.59 350.11, 310.56 349.58 C 309.52 349.05, 309.07 348.50, 308.20 347.88 C 307.32 347.25, 306.91 346.82, 306.18 346.45 C 305.45 346.08, 305.09 345.83, 304.53 346.01 C 303.97 346.19, 303.72 346.46, 303.38 347.34 C 303.03 348.22, 302.97 349.01, 302.82 350.40 C 302.66 351.79, 302.67 352.80, 302.61 354.29 C 302.54 355.77, 302.50 356.68, 302.50 357.84 C 302.49 359.00, 302.57 359.61, 302.60 360.10 C 302.62 360.58, 302.64 360.61, 302.60 360.27 C 302.56 359.93, 302.50 359.52, 302.39 358.41 C 302.28 357.29, 302.16 356.37, 302.04 354.70 C 301.92 353.03, 301.87 351.87, 301.78 350.07 C 301.70 348.26, 301.73 347.21, 301.62 345.68 C 301.51 344.15, 301.48 343.44, 301.21 342.44 C 300.95 341.44, 300.77 341.08, 300.29 340.68 C 299.81 340.28, 299.48 340.30, 298.82 340.45 C 298.15 340.59, 297.77 340.95, 296.98 341.41 C 296.19 341.87, 295.80 342.28, 294.87 342.76 C 293.95 343.25, 293.42 343.48, 292.37 343.83 C 291.32 344.17, 290.74 344.35, 289.62 344.49 C 288.50 344.62, 287.85 344.66, 286.77 344.52 C 285.69 344.37, 285.12 344.17, 284.24 343.77 C 283.36 343.37, 282.99 342.98, 282.37 342.52 C 281.74 342.06, 281.49 341.78, 281.10 341.47 C 280.72 341.16, 280.56 340.93, 280.44 340.96 C 280.31 340.99, 280.40 341.00, 280.49 341.61 C 280.57 342.21, 280.71 342.69, 280.88 344.01 C 281.05 345.33, 281.17 346.39, 281.34 348.21 C 281.50 350.03, 281.57 351.27, 281.72 353.10 C 281.88 354.94, 281.95 356.03, 282.13 357.37 C 282.31 358.71, 282.47 359.42, 282.63 359.79 C 282.80 360.16, 282.87 360.08, 282.95 359.21 C 283.03 358.34, 283.00 357.53, 283.05 355.44 C 283.09 353.35, 283.07 351.79, 283.17 348.77 C 283.27 345.74, 283.35 343.79, 283.55 340.29 C 283.76 336.80, 283.88 334.68, 284.20 331.29 C 284.51 327.90, 284.85 326.06, 285.12 323.33 C 285.40 320.60, 285.53 319.30, 285.58 317.65 C 285.62 316.00, 285.53 315.48, 285.34 315.09 C 285.15 314.69, 284.99 314.83, 284.63 315.66 C 284.28 316.49, 284.05 317.41, 283.55 319.25 C 283.04 321.09, 282.74 322.34, 282.09 324.84 C 281.44 327.34, 281.11 328.86, 280.29 331.75 C 279.47 334.64, 278.98 336.31, 277.99 339.29 C 277.01 342.28, 276.42 343.92, 275.35 346.67 C 274.28 349.42, 273.68 350.80, 272.62 353.04 C 271.57 355.27, 271.02 356.28, 270.08 357.85 C 269.14 359.42, 268.66 360.09, 267.92 360.89 C 267.17 361.68, 266.90 361.87, 266.36 361.85 C 265.81 361.83, 265.54 361.57, 265.18 360.79 C 264.81 360.01, 264.69 359.38, 264.53 357.95 C 264.37 356.51, 264.37 355.43, 264.37 353.62 C 264.37 351.80, 264.46 350.62, 264.52 348.86 C 264.58 347.10, 264.70 346.13, 264.66 344.80 C 264.62 343.47, 264.59 342.86, 264.34 342.21 C 264.08 341.57, 263.87 341.38, 263.37 341.57 C 262.88 341.75, 262.57 342.16, 261.87 343.14 C 261.17 344.12, 260.75 344.93, 259.90 346.46 C 259.04 347.99, 258.53 349.07, 257.61 350.80 C 256.69 352.53, 256.16 353.58, 255.30 355.09 C 254.44 356.59, 253.97 357.38, 253.30 358.32 C 252.63 359.25, 252.35 359.65, 251.95 359.76 C 251.54 359.88, 251.45 359.71, 251.27 358.90 C 251.09 358.10, 251.01 357.31, 251.03 355.72 C 251.06 354.13, 251.13 352.94, 251.41 350.95 C 251.70 348.97, 251.97 347.73, 252.46 345.79 C 252.94 343.84, 253.33 342.80, 253.82 341.21 C 254.32 339.63, 254.67 338.88, 254.92 337.85 C 255.18 336.81, 255.28 336.43, 255.10 336.02 C 254.92 335.61, 254.76 335.58, 254.01 335.80 C 253.26 336.03, 252.68 336.42, 251.37 337.14 C 250.06 337.85, 249.22 338.42, 247.47 339.37 C 245.73 340.33, 244.69 340.91, 242.65 341.92 C 240.61 342.92, 239.39 343.50, 237.26 344.40 C 235.12 345.30, 233.96 345.76, 231.98 346.40 C 230.01 347.03, 228.98 347.21, 227.39 347.58 C 225.79 347.94, 225.05 348.03, 224.02 348.23 C 222.99 348.44, 222.59 348.43, 222.24 348.60 C 221.88 348.77, 221.87 348.94, 222.25 349.10" style="stroke: black; fill: black;"/><path d="M 394.34,337.41 C 394.03 337.30, 393.59 337.23, 392.91 337.40 C 392.22 337.56, 391.76 337.70, 390.91 338.23 C 390.05 338.76, 389.50 339.07, 388.63 340.04 C 387.76 341.01, 387.27 341.69, 386.56 343.08 C 385.85 344.47, 385.49 345.34, 385.08 347.00 C 384.68 348.66, 384.53 349.73, 384.53 351.37 C 384.54 353.01, 384.65 353.94, 385.08 355.20 C 385.52 356.47, 385.90 357.10, 386.73 357.68 C 387.57 358.26, 388.19 358.40, 389.26 358.11 C 390.32 357.82, 390.93 357.41, 392.06 356.23 C 393.19 355.04, 393.82 354.19, 394.91 352.18 C 395.99 350.16, 396.57 348.84, 397.48 346.17 C 398.39 343.51, 398.77 341.73, 399.44 338.85 C 400.11 335.96, 400.44 334.34, 400.84 331.75 C 401.25 329.15, 401.38 327.75, 401.46 325.88 C 401.55 324.01, 401.53 323.31, 401.29 322.41 C 401.04 321.50, 400.77 321.23, 400.26 321.34 C 399.76 321.46, 399.36 321.85, 398.77 323.00 C 398.19 324.15, 397.80 325.10, 397.35 327.08 C 396.90 329.06, 396.72 330.40, 396.52 332.88 C 396.33 335.36, 396.26 336.89, 396.36 339.47 C 396.46 342.04, 396.60 343.52, 397.04 345.77 C 397.47 348.01, 397.78 349.15, 398.53 350.70 C 399.27 352.25, 400.24 353.01, 400.77 353.52 C 401.29 354.03, 401.41 353.90, 401.15 353.26 C 400.89 352.62, 400.03 351.84, 399.47 350.30 C 398.91 348.76, 398.69 347.71, 398.36 345.54 C 398.04 343.36, 397.89 341.93, 397.84 339.42 C 397.80 336.92, 397.90 335.42, 398.12 333.02 C 398.35 330.62, 398.60 329.33, 398.96 327.41 C 399.32 325.49, 399.61 324.58, 399.90 323.43 C 400.19 322.28, 400.28 321.84, 400.41 321.66 C 400.55 321.47, 400.59 321.67, 400.57 322.49 C 400.54 323.32, 400.50 323.98, 400.28 325.78 C 400.06 327.59, 399.91 328.97, 399.47 331.52 C 399.02 334.07, 398.74 335.69, 398.05 338.52 C 397.36 341.35, 396.91 343.08, 396.01 345.67 C 395.11 348.26, 394.56 349.54, 393.57 351.47 C 392.58 353.41, 391.99 354.21, 391.07 355.36 C 390.15 356.50, 389.71 356.88, 388.95 357.21 C 388.19 357.53, 387.81 357.44, 387.27 356.98 C 386.73 356.51, 386.50 355.98, 386.24 354.86 C 385.97 353.75, 385.89 352.89, 385.94 351.39 C 385.99 349.89, 386.12 348.88, 386.50 347.35 C 386.89 345.82, 387.22 345.02, 387.87 343.75 C 388.52 342.48, 388.97 341.88, 389.73 341.01 C 390.49 340.14, 390.96 339.91, 391.68 339.40 C 392.39 338.90, 392.75 338.78, 393.31 338.49 C 393.86 338.20, 394.24 338.17, 394.45 337.95 C 394.66 337.74, 394.65 337.52, 394.34 337.41" style="stroke: black; fill: black;"/><path d="M 414.99,338.10 C 414.92 337.88, 414.76 337.63, 414.37 337.46 C 413.97 337.28, 413.64 337.20, 413.03 337.25 C 412.41 337.31, 412.02 337.33, 411.30 337.73 C 410.57 338.13, 410.13 338.43, 409.39 339.27 C 408.65 340.11, 408.24 340.74, 407.60 341.95 C 406.96 343.15, 406.62 343.89, 406.20 345.28 C 405.78 346.68, 405.59 347.56, 405.51 348.93 C 405.43 350.29, 405.50 351.08, 405.81 352.11 C 406.12 353.15, 406.40 353.64, 407.06 354.11 C 407.71 354.59, 408.20 354.69, 409.08 354.48 C 409.96 354.26, 410.54 353.95, 411.47 353.03 C 412.41 352.12, 412.90 351.36, 413.76 349.90 C 414.62 348.44, 415.07 347.43, 415.78 345.73 C 416.49 344.04, 416.86 342.91, 417.30 341.44 C 417.74 339.97, 417.89 339.17, 417.98 338.38 C 418.06 337.60, 417.94 337.38, 417.75 337.50 C 417.55 337.62, 417.25 338.03, 416.99 338.99 C 416.73 339.96, 416.54 340.90, 416.45 342.32 C 416.36 343.75, 416.37 344.72, 416.53 346.13 C 416.70 347.53, 416.85 348.39, 417.29 349.35 C 417.74 350.31, 418.10 350.71, 418.76 350.93 C 419.43 351.15, 419.82 351.04, 420.63 350.45 C 421.43 349.87, 421.93 349.26, 422.80 348.01 C 423.66 346.77, 424.15 345.80, 424.95 344.21 C 425.75 342.63, 426.17 341.56, 426.79 340.08 C 427.42 338.60, 427.73 337.70, 428.08 336.82 C 428.43 335.94, 428.50 335.65, 428.54 335.69 C 428.58 335.74, 428.42 336.07, 428.29 337.04 C 428.15 338.01, 427.99 338.99, 427.88 340.54 C 427.76 342.10, 427.71 343.20, 427.72 344.79 C 427.74 346.38, 427.72 347.31, 427.94 348.51 C 428.16 349.71, 428.33 350.28, 428.83 350.80 C 429.33 351.33, 429.70 351.42, 430.44 351.14 C 431.18 350.86, 431.64 350.43, 432.54 349.41 C 433.44 348.39, 433.99 347.54, 434.95 346.03 C 435.92 344.51, 436.46 343.42, 437.34 341.83 C 438.22 340.23, 438.70 339.24, 439.37 338.06 C 440.04 336.88, 440.34 336.38, 440.69 335.95 C 441.03 335.52, 441.08 335.53, 441.11 335.91 C 441.14 336.30, 440.97 336.82, 440.85 337.88 C 440.73 338.94, 440.56 339.83, 440.51 341.22 C 440.47 342.60, 440.48 343.49, 440.62 344.79 C 440.77 346.10, 440.84 346.84, 441.23 347.75 C 441.61 348.65, 441.87 349.04, 442.56 349.33 C 443.26 349.62, 443.76 349.57, 444.69 349.18 C 445.62 348.80, 446.17 348.42, 447.23 347.41 C 448.29 346.41, 448.89 345.61, 450.00 344.17 C 451.12 342.74, 451.74 341.76, 452.80 340.25 C 453.87 338.74, 454.42 337.86, 455.33 336.64 C 456.23 335.41, 456.68 334.78, 457.32 334.13 C 457.96 333.49, 458.17 333.33, 458.54 333.40 C 458.91 333.48, 458.95 333.77, 459.17 334.52 C 459.39 335.28, 459.45 335.91, 459.65 337.16 C 459.84 338.41, 459.96 339.27, 460.15 340.80 C 460.34 342.33, 460.48 343.31, 460.61 344.81 C 460.75 346.30, 460.79 347.08, 460.83 348.27 C 460.87 349.46, 460.83 350.05, 460.80 350.77 C 460.76 351.49, 460.75 351.70, 460.66 351.87 C 460.58 352.04, 460.55 351.91, 460.38 351.60 C 460.22 351.30, 460.08 350.87, 459.83 350.35 C 459.58 349.83, 459.41 349.47, 459.13 349.01 C 458.84 348.55, 458.60 348.36, 458.41 348.05 C 458.22 347.73, 458.23 347.59, 458.18 347.43 C 458.12 347.26, 458.12 347.33, 458.15 347.23 C 458.17 347.14, 458.33 347.08, 458.30 346.95 C 458.27 346.83, 458.12 346.63, 457.98 346.62 C 457.83 346.60, 457.71 346.71, 457.57 346.87 C 457.44 347.04, 457.37 347.11, 457.31 347.42 C 457.25 347.74, 457.20 347.99, 457.29 348.45 C 457.37 348.91, 457.50 349.18, 457.75 349.73 C 458.00 350.28, 458.11 350.68, 458.52 351.20 C 458.94 351.71, 459.34 352.09, 459.84 352.30 C 460.34 352.52, 460.64 352.54, 461.03 352.27 C 461.42 351.99, 461.58 351.73, 461.80 350.94 C 462.02 350.14, 462.07 349.53, 462.13 348.28 C 462.18 347.03, 462.16 346.24, 462.08 344.70 C 462.00 343.17, 461.93 342.17, 461.74 340.60 C 461.55 339.03, 461.45 338.16, 461.13 336.86 C 460.81 335.56, 460.63 334.90, 460.13 334.09 C 459.64 333.27, 459.37 332.93, 458.68 332.79 C 457.99 332.64, 457.57 332.75, 456.68 333.36 C 455.80 333.96, 455.29 334.59, 454.26 335.79 C 453.24 336.99, 452.68 337.88, 451.57 339.36 C 450.47 340.83, 449.81 341.79, 448.73 343.19 C 447.65 344.59, 447.08 345.37, 446.17 346.37 C 445.26 347.38, 444.85 347.76, 444.18 348.22 C 443.52 348.67, 443.23 348.80, 442.85 348.65 C 442.46 348.49, 442.41 348.21, 442.27 347.42 C 442.13 346.64, 442.14 345.94, 442.14 344.71 C 442.14 343.48, 442.23 342.63, 442.26 341.26 C 442.28 339.90, 442.39 339.00, 442.27 337.88 C 442.14 336.76, 442.05 336.15, 441.65 335.65 C 441.25 335.15, 440.95 335.05, 440.27 335.39 C 439.59 335.72, 439.12 336.19, 438.26 337.32 C 437.39 338.44, 436.90 339.46, 435.95 341.02 C 435.00 342.58, 434.42 343.63, 433.51 345.13 C 432.59 346.63, 432.09 347.47, 431.39 348.54 C 430.70 349.60, 430.45 350.08, 430.05 350.46 C 429.65 350.83, 429.55 350.83, 429.38 350.41 C 429.21 350.00, 429.21 349.51, 429.21 348.39 C 429.22 347.27, 429.32 346.39, 429.41 344.83 C 429.49 343.27, 429.64 342.18, 429.64 340.61 C 429.64 339.04, 429.63 338.04, 429.43 337.00 C 429.23 335.96, 429.10 335.56, 428.65 335.42 C 428.20 335.27, 427.84 335.48, 427.18 336.28 C 426.53 337.09, 426.13 337.99, 425.39 339.42 C 424.64 340.86, 424.24 341.91, 423.45 343.46 C 422.67 345.01, 422.17 345.93, 421.47 347.17 C 420.76 348.42, 420.41 349.06, 419.91 349.69 C 419.42 350.32, 419.29 350.48, 418.98 350.34 C 418.68 350.20, 418.56 349.85, 418.39 348.99 C 418.23 348.12, 418.19 347.33, 418.16 346.01 C 418.14 344.69, 418.24 343.77, 418.26 342.40 C 418.28 341.02, 418.32 340.10, 418.25 339.12 C 418.19 338.14, 418.16 337.69, 417.94 337.48 C 417.72 337.28, 417.56 337.41, 417.15 338.11 C 416.74 338.80, 416.47 339.55, 415.91 340.95 C 415.34 342.35, 415.02 343.48, 414.31 345.11 C 413.61 346.74, 413.16 347.72, 412.39 349.12 C 411.62 350.52, 411.18 351.21, 410.46 352.10 C 409.73 352.99, 409.35 353.29, 408.77 353.56 C 408.20 353.83, 407.94 353.81, 407.58 353.46 C 407.21 353.12, 407.08 352.73, 406.95 351.85 C 406.81 350.96, 406.76 350.27, 406.90 349.04 C 407.03 347.82, 407.20 347.00, 407.61 345.72 C 408.02 344.44, 408.36 343.76, 408.95 342.66 C 409.53 341.56, 409.92 340.98, 410.53 340.23 C 411.13 339.48, 411.45 339.24, 411.98 338.91 C 412.51 338.58, 412.76 338.65, 413.19 338.59 C 413.61 338.52, 413.78 338.57, 414.10 338.57 C 414.41 338.57, 414.56 338.68, 414.74 338.59 C 414.92 338.49, 415.06 338.33, 414.99 338.10" style="stroke: black; fill: black;"/><path d="M 500.07,308.82 C 499.92 309.07, 499.89 309.28, 499.78 310.08 C 499.68 310.88, 499.64 311.33, 499.56 312.82 C 499.48 314.30, 499.44 315.25, 499.39 317.51 C 499.34 319.78, 499.31 321.27, 499.31 324.15 C 499.31 327.03, 499.30 328.75, 499.38 331.93 C 499.46 335.10, 499.48 336.96, 499.73 340.00 C 499.98 343.05, 500.13 344.67, 500.63 347.16 C 501.12 349.65, 501.40 350.79, 502.20 352.45 C 502.99 354.11, 503.50 354.75, 504.61 355.46 C 505.72 356.18, 506.40 356.31, 507.74 356.03 C 509.07 355.75, 509.84 355.26, 511.27 354.08 C 512.69 352.90, 513.51 351.97, 514.84 350.13 C 516.18 348.30, 516.88 347.06, 517.92 344.91 C 518.97 342.77, 519.43 341.47, 520.06 339.43 C 520.70 337.39, 520.93 336.32, 521.10 334.71 C 521.26 333.11, 521.20 332.38, 520.90 331.38 C 520.60 330.37, 520.27 329.99, 519.59 329.69 C 518.91 329.38, 518.39 329.40, 517.52 329.85 C 516.64 330.30, 516.04 330.78, 515.23 331.95 C 514.41 333.12, 513.98 333.99, 513.45 335.71 C 512.92 337.42, 512.69 338.54, 512.59 340.51 C 512.48 342.48, 512.53 343.66, 512.95 345.57 C 513.36 347.48, 513.75 348.50, 514.67 350.05 C 515.59 351.60, 516.13 352.32, 517.55 353.31 C 518.96 354.31, 520.13 354.65, 521.74 355.02 C 523.35 355.38, 524.25 355.24, 525.60 355.15 C 526.96 355.06, 527.95 354.79, 528.53 354.57 C 529.10 354.36, 529.06 354.17, 528.48 354.06 C 527.89 353.94, 526.88 354.07, 525.59 354.01 C 524.30 353.95, 523.50 354.08, 522.03 353.74 C 520.57 353.40, 519.50 353.17, 518.24 352.31 C 516.98 351.45, 516.52 350.84, 515.73 349.44 C 514.94 348.03, 514.62 347.06, 514.28 345.29 C 513.95 343.53, 513.92 342.43, 514.05 340.60 C 514.18 338.77, 514.45 337.73, 514.93 336.16 C 515.40 334.58, 515.82 333.81, 516.45 332.73 C 517.08 331.64, 517.51 331.21, 518.08 330.72 C 518.65 330.24, 518.93 330.13, 519.32 330.30 C 519.70 330.47, 519.90 330.73, 520.02 331.58 C 520.14 332.43, 520.18 333.07, 519.92 334.56 C 519.67 336.04, 519.43 337.06, 518.76 339.00 C 518.09 340.94, 517.62 342.20, 516.59 344.25 C 515.55 346.30, 514.85 347.48, 513.60 349.24 C 512.36 351.01, 511.59 351.90, 510.37 353.07 C 509.15 354.24, 508.55 354.76, 507.50 355.10 C 506.44 355.44, 505.95 355.37, 505.08 354.76 C 504.22 354.14, 503.81 353.59, 503.17 352.02 C 502.52 350.45, 502.30 349.35, 501.87 346.92 C 501.44 344.50, 501.26 342.91, 501.03 339.90 C 500.79 336.90, 500.74 335.05, 500.70 331.90 C 500.66 328.75, 500.78 327.04, 500.83 324.16 C 500.89 321.29, 500.94 319.81, 500.98 317.54 C 501.01 315.28, 501.04 314.33, 501.01 312.84 C 500.98 311.35, 500.92 310.89, 500.83 310.09 C 500.73 309.28, 500.69 309.07, 500.54 308.82 C 500.39 308.56, 500.22 308.56, 500.07 308.82" style="stroke: black; fill: black;"/><path d="M 549.40,333.67 C 549.29 334.01, 549.34 334.40, 549.32 335.29 C 549.30 336.18, 549.28 336.75, 549.31 338.11 C 549.33 339.47, 549.38 340.43, 549.44 342.09 C 549.49 343.75, 549.47 344.84, 549.57 346.42 C 549.67 347.99, 549.70 348.85, 549.95 349.96 C 550.21 351.08, 550.38 351.58, 550.84 352.00 C 551.30 352.41, 551.64 352.47, 552.25 352.03 C 552.86 351.60, 553.24 351.03, 553.88 349.80 C 554.51 348.58, 554.81 347.62, 555.41 345.92 C 556.01 344.22, 556.27 343.06, 556.88 341.30 C 557.49 339.54, 557.89 338.52, 558.44 337.12 C 559.00 335.71, 559.28 335.00, 559.66 334.27 C 560.04 333.54, 560.14 333.37, 560.33 333.46 C 560.52 333.55, 560.51 333.89, 560.61 334.73 C 560.71 335.57, 560.71 336.32, 560.83 337.67 C 560.95 339.02, 561.02 340.02, 561.22 341.49 C 561.42 342.95, 561.50 343.83, 561.84 344.99 C 562.19 346.16, 562.39 346.73, 562.95 347.30 C 563.50 347.87, 563.87 348.03, 564.61 347.83 C 565.36 347.64, 565.83 347.27, 566.67 346.33 C 567.50 345.39, 567.95 344.56, 568.78 343.15 C 569.60 341.74, 570.06 340.72, 570.81 339.28 C 571.56 337.83, 571.98 336.96, 572.52 335.91 C 573.06 334.87, 573.26 334.37, 573.53 334.05 C 573.79 333.72, 573.80 333.79, 573.84 334.29 C 573.88 334.79, 573.75 335.39, 573.74 336.54 C 573.74 337.69, 573.72 338.58, 573.82 340.03 C 573.91 341.49, 573.97 342.43, 574.22 343.84 C 574.47 345.25, 574.61 346.00, 575.07 347.08 C 575.53 348.16, 575.83 348.69, 576.52 349.24 C 577.20 349.80, 577.67 349.93, 578.51 349.85 C 579.34 349.76, 579.80 349.51, 580.71 348.82 C 581.62 348.14, 582.17 347.57, 583.06 346.43 C 583.96 345.29, 584.44 344.48, 585.21 343.11 C 585.97 341.75, 586.39 340.79, 586.87 339.60 C 587.36 338.42, 587.53 337.80, 587.64 337.17 C 587.75 336.55, 587.62 336.41, 587.43 336.48 C 587.24 336.56, 586.99 336.79, 586.68 337.55 C 586.37 338.30, 586.07 339.01, 585.89 340.26 C 585.70 341.51, 585.70 342.43, 585.75 343.78 C 585.81 345.14, 585.86 345.89, 586.15 347.05 C 586.44 348.21, 586.65 348.83, 587.21 349.58 C 587.78 350.32, 588.22 350.63, 588.98 350.76 C 589.73 350.89, 590.20 350.77, 591.00 350.24 C 591.80 349.72, 592.26 349.26, 592.98 348.14 C 593.70 347.02, 594.10 346.20, 594.61 344.66 C 595.12 343.12, 595.33 342.11, 595.52 340.43 C 595.71 338.76, 595.73 337.77, 595.57 336.29 C 595.42 334.82, 595.22 334.05, 594.73 333.05 C 594.24 332.04, 593.81 331.67, 593.11 331.28 C 592.42 330.89, 591.91 330.89, 591.26 331.10 C 590.61 331.31, 590.22 331.67, 589.87 332.33 C 589.52 332.99, 589.37 333.57, 589.49 334.42 C 589.61 335.27, 589.82 335.86, 590.45 336.58 C 591.08 337.30, 591.59 337.67, 592.63 338.00 C 593.68 338.34, 594.37 338.37, 595.68 338.26 C 596.98 338.15, 597.76 337.94, 599.16 337.45 C 600.55 336.96, 601.34 336.52, 602.66 335.82 C 603.99 335.12, 604.72 334.61, 605.79 333.96 C 606.87 333.31, 607.35 332.96, 608.04 332.59 C 608.72 332.23, 608.97 332.06, 609.23 332.14 C 609.48 332.22, 609.42 332.32, 609.33 332.99 C 609.24 333.65, 609.02 334.24, 608.78 335.47 C 608.53 336.70, 608.35 337.62, 608.09 339.14 C 607.83 340.66, 607.65 341.62, 607.49 343.06 C 607.32 344.50, 607.18 345.33, 607.27 346.33 C 607.37 347.33, 607.52 347.74, 607.95 348.07 C 608.38 348.41, 608.71 348.45, 609.41 348.00 C 610.12 347.56, 610.59 347.00, 611.46 345.84 C 612.33 344.68, 612.86 343.72, 613.76 342.20 C 614.66 340.69, 615.13 339.69, 615.97 338.25 C 616.82 336.81, 617.31 336.05, 618.00 335.03 C 618.69 334.01, 618.98 333.55, 619.43 333.14 C 619.87 332.74, 620.01 332.75, 620.23 333.01 C 620.45 333.27, 620.43 333.63, 620.53 334.46 C 620.63 335.28, 620.65 335.95, 620.73 337.12 C 620.81 338.29, 620.84 339.06, 620.93 340.30 C 621.03 341.55, 621.03 342.28, 621.22 343.33 C 621.40 344.38, 621.51 344.90, 621.87 345.55 C 622.23 346.19, 622.44 346.41, 623.02 346.54 C 623.60 346.67, 624.02 346.59, 624.75 346.18 C 625.47 345.77, 625.87 345.35, 626.64 344.50 C 627.40 343.66, 627.77 343.00, 628.56 341.96 C 629.35 340.91, 629.77 340.25, 630.59 339.27 C 631.40 338.30, 631.84 337.80, 632.64 337.09 C 633.43 336.39, 633.79 336.10, 634.57 335.73 C 635.34 335.35, 635.76 335.30, 636.52 335.21 C 637.29 335.12, 637.69 335.21, 638.39 335.28 C 639.10 335.34, 639.43 335.51, 640.05 335.54 C 640.66 335.58, 641.01 335.61, 641.48 335.44 C 641.94 335.26, 642.16 335.09, 642.35 334.67 C 642.54 334.25, 642.60 333.91, 642.42 333.34 C 642.23 332.78, 642.00 332.34, 641.43 331.85 C 640.87 331.36, 640.41 331.09, 639.58 330.87 C 638.75 330.65, 638.24 330.55, 637.29 330.73 C 636.33 330.91, 635.77 331.09, 634.81 331.76 C 633.85 332.42, 633.35 332.89, 632.50 334.06 C 631.65 335.23, 631.18 336.06, 630.55 337.60 C 629.92 339.15, 629.63 340.15, 629.34 341.79 C 629.05 343.44, 629.00 344.39, 629.11 345.82 C 629.22 347.26, 629.39 348.01, 629.89 348.97 C 630.40 349.94, 630.81 350.36, 631.62 350.65 C 632.44 350.94, 632.98 350.93, 633.98 350.41 C 634.97 349.90, 635.57 349.41, 636.61 348.07 C 637.66 346.74, 638.21 345.76, 639.19 343.74 C 640.17 341.73, 640.64 340.39, 641.52 337.99 C 642.39 335.58, 642.86 334.16, 643.55 331.71 C 644.24 329.26, 644.54 327.85, 644.98 325.73 C 645.41 323.62, 645.63 322.60, 645.73 321.14 C 645.83 319.68, 645.72 318.97, 645.48 318.41 C 645.25 317.86, 644.93 317.83, 644.55 318.36 C 644.17 318.89, 643.91 319.54, 643.59 321.06 C 643.27 322.58, 643.08 323.72, 642.95 325.96 C 642.82 328.21, 642.82 329.72, 642.95 332.29 C 643.08 334.86, 643.21 336.38, 643.58 338.81 C 643.95 341.25, 644.17 342.49, 644.81 344.45 C 645.45 346.42, 645.86 347.37, 646.78 348.64 C 647.71 349.92, 648.29 350.34, 649.43 350.83 C 650.57 351.31, 651.21 351.36, 652.49 351.06 C 653.77 350.76, 654.53 350.36, 655.84 349.32 C 657.14 348.28, 657.84 347.44, 659.00 345.86 C 660.17 344.27, 660.79 343.21, 661.67 341.42 C 662.56 339.63, 662.94 338.55, 663.44 336.90 C 663.94 335.25, 664.10 334.40, 664.15 333.18 C 664.21 331.97, 664.09 331.43, 663.71 330.83 C 663.32 330.22, 662.90 330.04, 662.24 330.15 C 661.57 330.25, 661.07 330.52, 660.37 331.35 C 659.67 332.18, 659.24 332.89, 658.74 334.29 C 658.24 335.68, 658.01 336.60, 657.86 338.32 C 657.70 340.03, 657.70 341.12, 657.98 342.86 C 658.25 344.60, 658.50 345.54, 659.23 347.02 C 659.95 348.50, 660.47 349.24, 661.62 350.27 C 662.78 351.29, 663.55 351.71, 665.01 352.14 C 666.47 352.57, 667.30 352.58, 668.93 352.41 C 670.55 352.23, 671.47 351.97, 673.12 351.26 C 674.78 350.54, 675.80 349.83, 677.19 348.83 C 678.59 347.82, 679.20 347.15, 680.10 346.22 C 680.99 345.30, 681.42 344.67, 681.67 344.21 C 681.92 343.74, 681.81 343.65, 681.35 343.89 C 680.90 344.13, 680.38 344.66, 679.38 345.41 C 678.38 346.16, 677.73 346.73, 676.37 347.64 C 675.00 348.55, 674.06 349.26, 672.54 349.96 C 671.02 350.67, 670.21 350.95, 668.77 351.15 C 667.33 351.36, 666.60 351.35, 665.33 351.00 C 664.06 350.64, 663.41 350.28, 662.42 349.38 C 661.43 348.47, 660.99 347.82, 660.38 346.48 C 659.77 345.13, 659.57 344.27, 659.37 342.66 C 659.17 341.06, 659.21 340.04, 659.38 338.47 C 659.55 336.90, 659.82 336.07, 660.23 334.80 C 660.64 333.52, 660.99 332.90, 661.43 332.10 C 661.88 331.31, 662.11 331.01, 662.44 330.82 C 662.77 330.62, 662.96 330.68, 663.08 331.13 C 663.20 331.58, 663.23 331.99, 663.05 333.07 C 662.87 334.14, 662.70 334.95, 662.16 336.49 C 661.62 338.02, 661.23 339.06, 660.36 340.75 C 659.49 342.45, 658.87 343.46, 657.79 344.97 C 656.71 346.48, 656.08 347.28, 654.96 348.29 C 653.84 349.30, 653.24 349.70, 652.21 350.04 C 651.18 350.38, 650.71 350.38, 649.80 349.98 C 648.89 349.58, 648.42 349.22, 647.67 348.04 C 646.91 346.86, 646.55 345.97, 646.01 344.09 C 645.47 342.20, 645.28 340.99, 644.98 338.62 C 644.69 336.25, 644.59 334.74, 644.53 332.23 C 644.47 329.72, 644.58 328.25, 644.68 326.05 C 644.78 323.86, 644.95 322.75, 645.04 321.25 C 645.13 319.75, 645.14 319.11, 645.13 318.55 C 645.11 318.00, 645.08 317.99, 644.97 318.48 C 644.86 318.97, 644.85 319.60, 644.59 320.99 C 644.33 322.39, 644.16 323.38, 643.67 325.45 C 643.19 327.51, 642.88 328.90, 642.16 331.31 C 641.44 333.71, 640.96 335.11, 640.09 337.46 C 639.21 339.82, 638.71 341.12, 637.79 343.07 C 636.86 345.02, 636.33 345.94, 635.46 347.23 C 634.58 348.51, 634.13 348.97, 633.42 349.50 C 632.71 350.04, 632.41 350.08, 631.90 349.89 C 631.38 349.70, 631.15 349.37, 630.85 348.54 C 630.55 347.72, 630.43 347.06, 630.41 345.76 C 630.39 344.46, 630.45 343.58, 630.76 342.06 C 631.07 340.54, 631.36 339.60, 631.94 338.17 C 632.52 336.73, 632.94 335.95, 633.67 334.88 C 634.39 333.82, 634.81 333.41, 635.58 332.83 C 636.35 332.25, 636.80 332.12, 637.52 331.99 C 638.24 331.87, 638.59 332.00, 639.18 332.20 C 639.77 332.41, 640.04 332.67, 640.47 333.01 C 640.90 333.34, 641.09 333.60, 641.32 333.88 C 641.55 334.16, 641.64 334.28, 641.63 334.41 C 641.62 334.54, 641.57 334.53, 641.28 334.52 C 640.99 334.51, 640.73 334.44, 640.17 334.34 C 639.62 334.25, 639.26 334.11, 638.50 334.05 C 637.74 333.99, 637.25 333.92, 636.37 334.05 C 635.49 334.18, 634.99 334.28, 634.08 334.70 C 633.17 335.11, 632.74 335.41, 631.83 336.13 C 630.91 336.86, 630.41 337.35, 629.51 338.32 C 628.60 339.29, 628.12 339.95, 627.30 340.99 C 626.49 342.03, 626.09 342.66, 625.44 343.51 C 624.79 344.36, 624.51 344.77, 624.05 345.24 C 623.59 345.71, 623.39 345.88, 623.13 345.87 C 622.87 345.86, 622.86 345.73, 622.74 345.19 C 622.63 344.66, 622.61 344.17, 622.56 343.17 C 622.51 342.18, 622.54 341.46, 622.50 340.22 C 622.45 338.98, 622.50 338.18, 622.35 336.97 C 622.20 335.75, 622.09 335.04, 621.75 334.14 C 621.41 333.25, 621.19 332.83, 620.63 332.49 C 620.08 332.15, 619.71 332.10, 618.98 332.46 C 618.26 332.81, 617.86 333.27, 617.00 334.26 C 616.14 335.26, 615.64 336.04, 614.70 337.45 C 613.75 338.85, 613.20 339.81, 612.28 341.31 C 611.37 342.81, 610.82 343.74, 610.12 344.95 C 609.42 346.15, 609.15 346.77, 608.78 347.33 C 608.42 347.89, 608.37 347.94, 608.29 347.75 C 608.22 347.56, 608.27 347.25, 608.41 346.36 C 608.55 345.47, 608.73 344.68, 609.00 343.29 C 609.27 341.91, 609.49 340.95, 609.76 339.43 C 610.03 337.91, 610.23 336.99, 610.34 335.69 C 610.46 334.39, 610.52 333.75, 610.35 332.93 C 610.17 332.11, 610.00 331.85, 609.46 331.59 C 608.93 331.32, 608.52 331.37, 607.66 331.61 C 606.79 331.85, 606.26 332.19, 605.13 332.77 C 604.00 333.35, 603.28 333.85, 601.99 334.52 C 600.70 335.18, 599.96 335.60, 598.67 336.07 C 597.38 336.54, 596.67 336.74, 595.54 336.88 C 594.40 337.01, 593.83 336.99, 593.01 336.76 C 592.18 336.54, 591.86 336.25, 591.42 335.74 C 590.97 335.23, 590.89 334.81, 590.79 334.22 C 590.68 333.63, 590.75 333.26, 590.90 332.79 C 591.05 332.33, 591.20 332.07, 591.55 331.91 C 591.90 331.76, 592.21 331.71, 592.64 332.03 C 593.08 332.34, 593.39 332.61, 593.71 333.49 C 594.03 334.36, 594.17 335.05, 594.23 336.40 C 594.30 337.75, 594.26 338.69, 594.04 340.24 C 593.82 341.80, 593.58 342.74, 593.12 344.17 C 592.66 345.60, 592.29 346.36, 591.73 347.40 C 591.17 348.44, 590.84 348.86, 590.32 349.37 C 589.80 349.88, 589.56 350.01, 589.12 349.93 C 588.67 349.86, 588.43 349.63, 588.10 349.00 C 587.77 348.37, 587.61 347.83, 587.46 346.79 C 587.32 345.75, 587.34 345.04, 587.38 343.78 C 587.42 342.51, 587.57 341.67, 587.67 340.47 C 587.77 339.27, 587.89 338.58, 587.88 337.78 C 587.87 336.98, 587.83 336.67, 587.63 336.47 C 587.43 336.28, 587.30 336.32, 586.88 336.81 C 586.46 337.31, 586.16 337.86, 585.55 338.97 C 584.94 340.07, 584.56 341.02, 583.82 342.33 C 583.07 343.63, 582.62 344.40, 581.83 345.50 C 581.04 346.61, 580.57 347.15, 579.87 347.84 C 579.18 348.53, 578.91 348.81, 578.36 348.96 C 577.81 349.10, 577.57 349.02, 577.14 348.56 C 576.71 348.10, 576.52 347.64, 576.23 346.66 C 575.94 345.67, 575.83 344.98, 575.69 343.63 C 575.55 342.28, 575.62 341.37, 575.53 339.92 C 575.44 338.48, 575.42 337.60, 575.22 336.42 C 575.02 335.23, 574.93 334.58, 574.52 334.01 C 574.12 333.43, 573.81 333.28, 573.19 333.52 C 572.57 333.76, 572.18 334.22, 571.42 335.21 C 570.66 336.21, 570.22 337.08, 569.39 338.50 C 568.57 339.92, 568.07 340.91, 567.30 342.31 C 566.54 343.71, 566.16 344.54, 565.56 345.50 C 564.97 346.46, 564.72 346.86, 564.33 347.13 C 563.93 347.39, 563.82 347.30, 563.59 346.82 C 563.36 346.33, 563.30 345.81, 563.16 344.71 C 563.01 343.61, 563.01 342.75, 562.88 341.30 C 562.75 339.85, 562.74 338.83, 562.50 337.45 C 562.26 336.07, 562.10 335.30, 561.69 334.41 C 561.28 333.53, 561.02 333.15, 560.46 333.02 C 559.90 332.88, 559.56 333.02, 558.91 333.73 C 558.25 334.44, 557.88 335.14, 557.18 336.55 C 556.48 337.96, 556.08 339.00, 555.40 340.76 C 554.72 342.52, 554.37 343.67, 553.79 345.36 C 553.21 347.05, 552.92 347.98, 552.50 349.21 C 552.08 350.44, 551.92 351.02, 551.68 351.51 C 551.44 352.00, 551.41 352.00, 551.30 351.65 C 551.20 351.31, 551.19 350.86, 551.15 349.80 C 551.11 348.74, 551.10 347.91, 551.09 346.36 C 551.08 344.81, 551.14 343.70, 551.09 342.04 C 551.04 340.37, 550.97 339.40, 550.84 338.03 C 550.71 336.66, 550.65 336.07, 550.46 335.19 C 550.28 334.30, 550.13 333.90, 549.92 333.60 C 549.71 333.29, 549.52 333.33, 549.40 333.67" style="stroke: black; fill: black;"/><path d="M 703.72,333.50 C 703.55 333.87, 703.51 334.33, 703.40 335.32 C 703.29 336.30, 703.23 337.01, 703.16 338.43 C 703.08 339.85, 703.08 340.84, 703.03 342.44 C 702.99 344.03, 702.96 344.97, 702.92 346.40 C 702.88 347.84, 702.78 348.60, 702.84 349.63 C 702.90 350.65, 702.97 351.12, 703.21 351.52 C 703.46 351.91, 703.67 351.98, 704.07 351.59 C 704.47 351.21, 704.72 350.74, 705.20 349.58 C 705.67 348.41, 705.93 347.43, 706.45 345.76 C 706.96 344.08, 707.20 342.92, 707.75 341.21 C 708.31 339.50, 708.68 338.52, 709.20 337.20 C 709.72 335.87, 710.02 335.26, 710.34 334.60 C 710.65 333.94, 710.69 333.76, 710.77 333.90 C 710.84 334.05, 710.73 334.44, 710.73 335.34 C 710.73 336.24, 710.70 337.05, 710.76 338.41 C 710.82 339.76, 710.88 340.69, 711.03 342.14 C 711.18 343.58, 711.21 344.47, 711.51 345.63 C 711.81 346.79, 712.00 347.37, 712.51 347.94 C 713.02 348.51, 713.39 348.63, 714.06 348.47 C 714.73 348.32, 715.13 347.97, 715.86 347.16 C 716.58 346.36, 717.01 345.66, 717.67 344.47 C 718.34 343.27, 718.64 342.39, 719.18 341.17 C 719.72 339.95, 720.00 339.22, 720.37 338.36 C 720.73 337.51, 720.84 337.11, 721.01 336.90 C 721.18 336.68, 721.12 336.75, 721.20 337.27 C 721.28 337.79, 721.24 338.38, 721.42 339.51 C 721.59 340.64, 721.67 341.53, 722.06 342.91 C 722.46 344.29, 722.70 345.19, 723.38 346.41 C 724.05 347.63, 724.47 348.27, 725.44 349.00 C 726.41 349.73, 727.01 350.00, 728.21 350.08 C 729.41 350.16, 730.15 350.03, 731.45 349.41 C 732.74 348.79, 733.45 348.23, 734.68 346.99 C 735.90 345.75, 736.53 344.85, 737.57 343.21 C 738.61 341.57, 739.13 340.55, 739.86 338.79 C 740.58 337.04, 740.90 336.02, 741.18 334.44 C 741.47 332.85, 741.48 332.02, 741.28 330.86 C 741.08 329.71, 740.82 329.18, 740.19 328.67 C 739.56 328.15, 739.05 328.05, 738.14 328.29 C 737.23 328.53, 736.60 328.84, 735.65 329.86 C 734.70 330.88, 734.15 331.70, 733.38 333.37 C 732.62 335.04, 732.25 336.20, 731.84 338.20 C 731.43 340.20, 731.30 341.41, 731.34 343.38 C 731.38 345.35, 731.50 346.45, 732.03 348.03 C 732.56 349.62, 732.99 350.41, 733.97 351.32 C 734.95 352.23, 735.63 352.48, 736.93 352.59 C 738.22 352.70, 738.99 352.48, 740.44 351.88 C 741.89 351.28, 742.72 350.71, 744.18 349.59 C 745.65 348.48, 746.45 347.66, 747.76 346.30 C 749.06 344.94, 749.76 343.98, 750.69 342.80 C 751.62 341.61, 751.94 340.94, 752.40 340.37 C 752.86 339.80, 752.89 339.72, 753.01 339.95 C 753.12 340.19, 753.05 340.60, 752.97 341.56 C 752.88 342.51, 752.70 343.40, 752.60 344.74 C 752.49 346.07, 752.41 347.11, 752.43 348.22 C 752.46 349.33, 752.62 349.92, 752.73 350.29 C 752.84 350.65, 752.92 350.58, 753.00 350.04 C 753.08 349.50, 753.11 348.89, 753.13 347.61 C 753.16 346.32, 753.11 345.28, 753.12 343.63 C 753.13 341.98, 753.07 340.91, 753.18 339.37 C 753.28 337.82, 753.42 337.03, 753.65 335.91 C 753.88 334.78, 754.03 334.32, 754.34 333.73 C 754.66 333.14, 754.79 333.04, 755.23 332.96 C 755.68 332.88, 755.92 333.07, 756.57 333.34 C 757.22 333.61, 757.63 333.88, 758.49 334.31 C 759.35 334.74, 759.91 335.07, 760.85 335.50 C 761.78 335.93, 762.29 336.16, 763.18 336.47 C 764.07 336.78, 764.51 336.96, 765.30 337.05 C 766.08 337.15, 766.55 337.08, 767.10 336.93 C 767.66 336.77, 767.88 336.47, 768.06 336.28 C 768.25 336.09, 768.13 335.83, 768.01 335.95 C 767.88 336.08, 767.64 336.21, 767.44 336.91 C 767.23 337.61, 767.07 338.19, 766.96 339.46 C 766.86 340.72, 766.81 341.61, 766.89 343.22 C 766.97 344.84, 767.05 345.87, 767.37 347.53 C 767.69 349.18, 767.94 350.10, 768.50 351.51 C 769.07 352.92, 769.44 353.60, 770.20 354.56 C 770.97 355.51, 771.43 355.93, 772.32 356.27 C 773.22 356.61, 773.76 356.63, 774.67 356.25 C 775.58 355.88, 776.06 355.44, 776.85 354.40 C 777.65 353.37, 778.02 352.62, 778.64 351.09 C 779.26 349.56, 779.57 348.54, 779.95 346.76 C 780.32 344.98, 780.44 343.89, 780.54 342.18 C 780.64 340.46, 780.57 339.53, 780.45 338.17 C 780.33 336.81, 780.19 336.24, 779.95 335.38 C 779.71 334.52, 779.48 334.23, 779.24 333.88 C 778.99 333.54, 778.76 333.56, 778.72 333.66 C 778.67 333.76, 778.66 334.05, 779.00 334.39 C 779.35 334.72, 779.67 334.98, 780.45 335.33 C 781.23 335.68, 781.79 335.88, 782.91 336.14 C 784.04 336.39, 784.74 336.52, 786.07 336.61 C 787.40 336.70, 788.19 336.76, 789.56 336.59 C 790.93 336.41, 791.67 336.22, 792.91 335.73 C 794.15 335.24, 794.81 334.88, 795.77 334.15 C 796.74 333.41, 797.21 332.92, 797.74 332.07 C 798.27 331.22, 798.42 330.69, 798.42 329.91 C 798.41 329.13, 798.23 328.64, 797.72 328.17 C 797.21 327.69, 796.72 327.49, 795.87 327.53 C 795.02 327.57, 794.42 327.74, 793.48 328.37 C 792.55 329.00, 792.03 329.51, 791.20 330.68 C 790.37 331.85, 789.90 332.64, 789.33 334.20 C 788.76 335.76, 788.50 336.77, 788.34 338.48 C 788.18 340.19, 788.21 341.21, 788.53 342.76 C 788.85 344.31, 789.17 345.09, 789.92 346.23 C 790.67 347.36, 791.21 347.88, 792.29 348.43 C 793.38 348.98, 794.06 349.11, 795.35 348.97 C 796.64 348.84, 797.41 348.53, 798.75 347.75 C 800.08 346.98, 800.79 346.37, 802.04 345.11 C 803.29 343.85, 803.96 342.96, 805.01 341.46 C 806.06 339.96, 806.56 338.96, 807.28 337.60 C 808.00 336.24, 808.29 335.41, 808.60 334.66 C 808.92 333.90, 808.88 333.65, 808.86 333.81 C 808.84 333.96, 808.62 334.38, 808.50 335.42 C 808.37 336.47, 808.25 337.43, 808.25 339.05 C 808.25 340.68, 808.25 341.82, 808.48 343.54 C 808.70 345.27, 808.87 346.30, 809.38 347.68 C 809.88 349.05, 810.24 349.71, 811.00 350.43 C 811.76 351.14, 812.23 351.36, 813.16 351.25 C 814.08 351.14, 814.62 350.83, 815.62 349.88 C 816.61 348.93, 817.15 348.18, 818.14 346.51 C 819.14 344.85, 819.64 343.72, 820.59 341.57 C 821.54 339.41, 822.03 338.10, 822.89 335.76 C 823.75 333.41, 824.18 332.07, 824.88 329.82 C 825.58 327.58, 825.94 326.41, 826.40 324.53 C 826.87 322.65, 827.08 321.65, 827.21 320.41 C 827.33 319.18, 827.25 318.69, 827.02 318.36 C 826.79 318.04, 826.46 318.11, 826.06 318.79 C 825.65 319.48, 825.36 320.16, 825.00 321.80 C 824.63 323.44, 824.45 324.63, 824.23 327.00 C 824.01 329.37, 823.93 330.98, 823.91 333.65 C 823.89 336.31, 823.90 337.88, 824.11 340.33 C 824.32 342.78, 824.46 344.05, 824.97 345.91 C 825.47 347.77, 825.82 348.63, 826.64 349.63 C 827.46 350.63, 828.00 350.91, 829.08 350.91 C 830.16 350.92, 830.82 350.64, 832.03 349.66 C 833.25 348.69, 833.94 347.88, 835.17 346.04 C 836.39 344.19, 837.03 342.92, 838.15 340.43 C 839.28 337.94, 839.85 336.37, 840.80 333.58 C 841.76 330.79, 842.24 329.15, 842.93 326.49 C 843.62 323.83, 843.90 322.39, 844.25 320.27 C 844.60 318.15, 844.73 317.14, 844.68 315.91 C 844.63 314.68, 844.43 314.31, 844.01 314.13 C 843.58 313.95, 843.16 314.15, 842.56 315.02 C 841.95 315.90, 841.55 316.70, 840.98 318.50 C 840.40 320.30, 840.09 321.60, 839.69 324.02 C 839.29 326.44, 839.11 327.95, 838.98 330.59 C 838.85 333.22, 838.82 334.74, 839.04 337.19 C 839.25 339.65, 839.46 340.92, 840.06 342.86 C 840.65 344.80, 841.07 345.66, 842.02 346.88 C 842.97 348.11, 843.58 348.55, 844.82 348.98 C 846.06 349.42, 846.84 349.41, 848.22 349.05 C 849.61 348.69, 850.40 348.23, 851.75 347.19 C 853.10 346.15, 853.84 345.34, 854.98 343.85 C 856.12 342.36, 856.71 341.35, 857.45 339.75 C 858.18 338.15, 858.46 337.19, 858.65 335.85 C 858.83 334.52, 858.75 333.86, 858.38 333.07 C 858.01 332.29, 857.59 331.98, 856.79 331.93 C 855.99 331.88, 855.31 332.08, 854.40 332.83 C 853.48 333.58, 852.94 334.30, 852.23 335.69 C 851.51 337.09, 851.17 338.09, 850.81 339.80 C 850.46 341.52, 850.34 342.59, 850.45 344.28 C 850.57 345.97, 850.79 346.91, 851.38 348.24 C 851.98 349.57, 852.44 350.18, 853.41 350.93 C 854.39 351.67, 855.04 351.89, 856.27 351.96 C 857.50 352.03, 858.25 351.89, 859.57 351.29 C 860.89 350.69, 861.61 350.13, 862.89 348.96 C 864.16 347.78, 864.84 346.95, 865.94 345.41 C 867.05 343.86, 867.57 342.84, 868.42 341.25 C 869.27 339.65, 869.69 338.69, 870.19 337.43 C 870.70 336.18, 870.85 335.51, 870.94 334.97 C 871.03 334.43, 870.88 334.37, 870.65 334.72 C 870.42 335.07, 870.09 335.58, 869.78 336.72 C 869.47 337.85, 869.25 338.81, 869.10 340.39 C 868.95 341.98, 868.94 343.05, 869.04 344.66 C 869.14 346.27, 869.24 347.18, 869.60 348.45 C 869.95 349.72, 870.20 350.31, 870.82 351.01 C 871.44 351.71, 871.88 351.95, 872.71 351.95 C 873.54 351.95, 874.05 351.74, 874.98 351.00 C 875.90 350.27, 876.42 349.61, 877.35 348.28 C 878.28 346.94, 878.81 345.97, 879.63 344.33 C 880.45 342.69, 880.88 341.60, 881.46 340.07 C 882.03 338.55, 882.28 337.60, 882.51 336.69 C 882.74 335.78, 882.69 335.48, 882.62 335.53 C 882.55 335.59, 882.32 335.96, 882.16 336.96 C 882.01 337.97, 881.87 338.94, 881.86 340.55 C 881.85 342.16, 881.88 343.29, 882.12 345.03 C 882.35 346.76, 882.52 347.75, 883.02 349.22 C 883.52 350.70, 883.85 351.46, 884.62 352.42 C 885.38 353.38, 885.84 353.78, 886.84 354.04 C 887.84 354.31, 888.45 354.23, 889.62 353.76 C 890.78 353.29, 891.46 352.90, 892.66 351.68 C 893.85 350.47, 894.47 349.50, 895.59 347.67 C 896.72 345.84, 897.27 344.63, 898.28 342.55 C 899.28 340.47, 899.80 339.23, 900.61 337.28 C 901.43 335.33, 901.76 334.28, 902.35 332.80 C 902.95 331.32, 903.21 330.70, 903.60 329.88 C 903.98 329.06, 904.07 328.78, 904.27 328.70 C 904.47 328.62, 904.41 328.80, 904.59 329.48 C 904.78 330.17, 904.85 330.81, 905.20 332.12 C 905.55 333.43, 905.80 334.35, 906.34 336.05 C 906.88 337.74, 907.20 338.77, 907.90 340.58 C 908.59 342.38, 908.99 343.40, 909.80 345.06 C 910.61 346.72, 911.09 347.56, 911.95 348.88 C 912.81 350.21, 913.29 350.83, 914.11 351.68 C 914.93 352.53, 915.39 352.86, 916.06 353.13 C 916.73 353.39, 917.09 353.35, 917.45 353.02 C 917.82 352.68, 917.96 352.28, 917.86 351.43 C 917.77 350.58, 917.56 349.92, 916.98 348.78 C 916.41 347.64, 915.92 346.93, 915.01 345.72 C 914.09 344.51, 913.46 343.84, 912.39 342.73 C 911.31 341.63, 910.70 341.02, 909.63 340.20 C 908.56 339.38, 907.92 339.07, 907.02 338.64 C 906.13 338.20, 905.56 338.08, 905.15 338.03 C 904.73 337.99, 904.68 338.13, 904.96 338.42 C 905.23 338.72, 905.74 338.94, 906.50 339.51 C 907.27 340.07, 907.82 340.39, 908.78 341.23 C 909.74 342.08, 910.33 342.65, 911.32 343.74 C 912.31 344.83, 912.87 345.51, 913.72 346.67 C 914.57 347.84, 914.96 348.54, 915.57 349.55 C 916.17 350.57, 916.44 351.10, 916.75 351.73 C 917.05 352.36, 917.15 352.56, 917.09 352.70 C 917.04 352.83, 916.90 352.76, 916.47 352.41 C 916.05 352.05, 915.66 351.75, 914.97 350.91 C 914.28 350.07, 913.82 349.49, 913.03 348.20 C 912.25 346.91, 911.79 346.10, 911.04 344.47 C 910.30 342.84, 909.92 341.84, 909.30 340.06 C 908.67 338.28, 908.42 337.24, 907.90 335.55 C 907.37 333.87, 907.17 332.95, 906.68 331.65 C 906.19 330.35, 905.95 329.73, 905.45 329.05 C 904.96 328.37, 904.72 328.19, 904.19 328.26 C 903.65 328.33, 903.39 328.59, 902.79 329.40 C 902.20 330.20, 901.91 330.84, 901.22 332.31 C 900.53 333.77, 900.19 334.80, 899.33 336.72 C 898.47 338.63, 897.93 339.85, 896.92 341.89 C 895.91 343.92, 895.34 345.10, 894.28 346.87 C 893.22 348.64, 892.65 349.56, 891.63 350.73 C 890.60 351.90, 890.06 352.26, 889.15 352.74 C 888.24 353.23, 887.81 353.35, 887.08 353.16 C 886.35 352.97, 886.05 352.65, 885.50 351.78 C 884.94 350.92, 884.66 350.23, 884.31 348.84 C 883.96 347.45, 883.88 346.52, 883.73 344.85 C 883.59 343.18, 883.68 342.09, 883.60 340.51 C 883.51 338.93, 883.49 337.98, 883.32 336.95 C 883.14 335.92, 883.07 335.51, 882.73 335.38 C 882.38 335.24, 882.13 335.46, 881.59 336.28 C 881.06 337.10, 880.73 338.02, 880.05 339.48 C 879.37 340.95, 878.99 342.02, 878.19 343.61 C 877.39 345.19, 876.86 346.11, 876.05 347.41 C 875.24 348.71, 874.82 349.35, 874.14 350.10 C 873.46 350.84, 873.19 351.08, 872.67 351.15 C 872.15 351.22, 871.92 351.05, 871.55 350.45 C 871.19 349.85, 871.03 349.34, 870.84 348.17 C 870.65 347.00, 870.59 346.14, 870.60 344.61 C 870.62 343.09, 870.79 342.09, 870.91 340.55 C 871.04 339.02, 871.18 338.11, 871.23 336.95 C 871.28 335.79, 871.33 335.21, 871.16 334.76 C 870.99 334.30, 870.81 334.24, 870.38 334.66 C 869.94 335.08, 869.63 335.68, 868.98 336.86 C 868.33 338.04, 867.99 339.02, 867.14 340.55 C 866.29 342.09, 865.79 343.08, 864.75 344.55 C 863.70 346.03, 863.05 346.80, 861.91 347.92 C 860.76 349.04, 860.13 349.55, 859.01 350.15 C 857.89 350.74, 857.30 350.88, 856.31 350.87 C 855.32 350.87, 854.82 350.72, 854.06 350.10 C 853.30 349.48, 852.95 348.96, 852.51 347.78 C 852.06 346.60, 851.88 345.74, 851.84 344.21 C 851.80 342.68, 851.95 341.69, 852.30 340.13 C 852.66 338.56, 853.03 337.66, 853.62 336.38 C 854.22 335.10, 854.64 334.48, 855.28 333.74 C 855.91 333.01, 856.34 332.77, 856.81 332.69 C 857.28 332.62, 857.50 332.76, 857.63 333.35 C 857.76 333.93, 857.76 334.47, 857.46 335.63 C 857.17 336.78, 856.89 337.67, 856.16 339.13 C 855.43 340.60, 854.86 341.56, 853.80 342.95 C 852.75 344.35, 852.07 345.12, 850.89 346.12 C 849.71 347.12, 849.05 347.57, 847.90 347.96 C 846.75 348.35, 846.15 348.41, 845.14 348.07 C 844.13 347.73, 843.63 347.37, 842.85 346.26 C 842.07 345.15, 841.71 344.36, 841.22 342.52 C 840.74 340.69, 840.55 339.46, 840.41 337.09 C 840.26 334.72, 840.31 333.24, 840.49 330.68 C 840.67 328.12, 840.92 326.64, 841.32 324.29 C 841.73 321.94, 842.09 320.69, 842.51 318.93 C 842.93 317.16, 843.15 316.37, 843.43 315.45 C 843.70 314.54, 843.82 314.28, 843.89 314.36 C 843.95 314.44, 843.95 314.73, 843.77 315.86 C 843.59 317.00, 843.43 317.98, 842.99 320.03 C 842.55 322.09, 842.28 323.51, 841.58 326.13 C 840.87 328.75, 840.42 330.38, 839.45 333.11 C 838.49 335.84, 837.86 337.37, 836.75 339.79 C 835.64 342.21, 835.01 343.44, 833.90 345.23 C 832.80 347.03, 832.21 347.79, 831.24 348.77 C 830.27 349.76, 829.83 350.07, 829.05 350.14 C 828.28 350.20, 827.95 350.00, 827.36 349.10 C 826.78 348.20, 826.51 347.40, 826.15 345.63 C 825.78 343.85, 825.65 342.62, 825.52 340.23 C 825.39 337.84, 825.41 336.29, 825.49 333.68 C 825.58 331.07, 825.74 329.48, 825.95 327.16 C 826.15 324.83, 826.34 323.67, 826.51 322.05 C 826.69 320.42, 826.78 319.76, 826.82 319.03 C 826.86 318.31, 826.85 318.18, 826.72 318.41 C 826.59 318.65, 826.47 319.07, 826.16 320.22 C 825.84 321.38, 825.67 322.36, 825.15 324.20 C 824.63 326.03, 824.30 327.19, 823.57 329.40 C 822.84 331.61, 822.40 332.94, 821.52 335.24 C 820.64 337.55, 820.12 338.84, 819.18 340.94 C 818.24 343.04, 817.71 344.13, 816.82 345.75 C 815.93 347.37, 815.47 348.10, 814.71 349.04 C 813.95 349.98, 813.62 350.30, 813.02 350.45 C 812.42 350.61, 812.16 350.43, 811.69 349.80 C 811.21 349.16, 810.96 348.57, 810.64 347.29 C 810.33 346.00, 810.23 345.03, 810.11 343.37 C 809.98 341.72, 810.08 340.61, 810.00 339.01 C 809.93 337.42, 809.91 336.47, 809.73 335.39 C 809.54 334.31, 809.47 333.85, 809.09 333.60 C 808.71 333.35, 808.44 333.50, 807.84 334.16 C 807.23 334.81, 806.85 335.59, 806.04 336.88 C 805.23 338.18, 804.80 339.17, 803.79 340.61 C 802.79 342.06, 802.15 342.90, 801.01 344.10 C 799.86 345.30, 799.21 345.86, 798.05 346.61 C 796.89 347.36, 796.26 347.66, 795.20 347.83 C 794.15 348.01, 793.63 347.93, 792.78 347.48 C 791.92 347.04, 791.50 346.60, 790.90 345.61 C 790.31 344.61, 790.04 343.92, 789.82 342.52 C 789.59 341.12, 789.58 340.18, 789.76 338.62 C 789.94 337.06, 790.19 336.14, 790.72 334.72 C 791.25 333.30, 791.70 332.57, 792.42 331.53 C 793.13 330.48, 793.57 330.05, 794.29 329.48 C 795.01 328.91, 795.44 328.79, 796.01 328.65 C 796.57 328.52, 796.84 328.58, 797.13 328.82 C 797.41 329.06, 797.51 329.34, 797.44 329.86 C 797.37 330.38, 797.25 330.76, 796.77 331.41 C 796.28 332.06, 795.88 332.50, 795.01 333.11 C 794.15 333.73, 793.56 334.07, 792.43 334.49 C 791.31 334.91, 790.65 335.08, 789.40 335.20 C 788.16 335.33, 787.42 335.24, 786.20 335.12 C 784.97 334.99, 784.32 334.83, 783.29 334.57 C 782.25 334.32, 781.77 334.06, 781.01 333.83 C 780.25 333.60, 779.95 333.48, 779.48 333.42 C 779.01 333.35, 778.85 333.36, 778.67 333.50 C 778.49 333.65, 778.52 333.72, 778.57 334.14 C 778.62 334.56, 778.80 334.79, 778.92 335.61 C 779.05 336.43, 779.16 336.95, 779.20 338.24 C 779.24 339.53, 779.27 340.43, 779.12 342.07 C 778.97 343.71, 778.84 344.74, 778.46 346.44 C 778.09 348.13, 777.77 349.10, 777.23 350.54 C 776.69 351.99, 776.37 352.69, 775.77 353.65 C 775.18 354.62, 774.87 355.01, 774.25 355.37 C 773.63 355.72, 773.31 355.71, 772.69 355.41 C 772.06 355.11, 771.72 354.75, 771.13 353.87 C 770.54 353.00, 770.21 352.36, 769.75 351.04 C 769.29 349.72, 769.09 348.84, 768.84 347.27 C 768.60 345.69, 768.57 344.70, 768.54 343.16 C 768.50 341.62, 768.61 340.78, 768.66 339.56 C 768.71 338.35, 768.81 337.81, 768.78 337.07 C 768.75 336.34, 768.71 336.17, 768.52 335.87 C 768.33 335.58, 768.15 335.62, 767.82 335.61 C 767.49 335.60, 767.35 335.77, 766.88 335.82 C 766.41 335.88, 766.11 336.00, 765.47 335.88 C 764.83 335.76, 764.46 335.58, 763.66 335.24 C 762.87 334.89, 762.41 334.60, 761.50 334.14 C 760.59 333.68, 760.04 333.33, 759.12 332.94 C 758.20 332.55, 757.72 332.36, 756.90 332.20 C 756.08 332.05, 755.69 331.96, 755.03 332.17 C 754.37 332.38, 754.09 332.55, 753.58 333.23 C 753.07 333.92, 752.85 334.40, 752.47 335.59 C 752.08 336.79, 751.90 337.60, 751.67 339.21 C 751.44 340.81, 751.32 341.91, 751.30 343.61 C 751.28 345.31, 751.36 346.39, 751.56 347.71 C 751.76 349.03, 751.96 349.66, 752.30 350.20 C 752.63 350.75, 752.88 350.82, 753.23 350.45 C 753.58 350.09, 753.82 349.51, 754.06 348.38 C 754.31 347.26, 754.43 346.22, 754.47 344.84 C 754.50 343.45, 754.47 342.51, 754.24 341.47 C 754.02 340.42, 753.83 339.95, 753.35 339.60 C 752.88 339.26, 752.60 339.27, 751.85 339.73 C 751.11 340.18, 750.68 340.79, 749.64 341.89 C 748.60 343.00, 747.94 343.94, 746.67 345.25 C 745.39 346.55, 744.63 347.34, 743.28 348.44 C 741.92 349.53, 741.16 350.09, 739.91 350.71 C 738.65 351.34, 738.04 351.59, 736.99 351.56 C 735.94 351.54, 735.43 351.37, 734.67 350.59 C 733.92 349.82, 733.59 349.12, 733.21 347.68 C 732.82 346.24, 732.71 345.21, 732.74 343.38 C 732.76 341.54, 732.91 340.39, 733.33 338.52 C 733.74 336.64, 734.14 335.56, 734.82 334.01 C 735.49 332.46, 735.97 331.71, 736.70 330.75 C 737.43 329.78, 737.86 329.48, 738.46 329.17 C 739.06 328.87, 739.34 328.86, 739.69 329.22 C 740.04 329.58, 740.18 329.99, 740.22 330.98 C 740.27 331.97, 740.25 332.73, 739.92 334.18 C 739.58 335.63, 739.27 336.59, 738.55 338.24 C 737.83 339.89, 737.30 340.87, 736.32 342.42 C 735.34 343.97, 734.74 344.82, 733.64 346.00 C 732.55 347.17, 731.94 347.68, 730.87 348.29 C 729.79 348.89, 729.21 349.03, 728.27 349.00 C 727.32 348.97, 726.87 348.77, 726.15 348.13 C 725.43 347.48, 725.13 346.92, 724.65 345.78 C 724.16 344.65, 724.06 343.79, 723.72 342.46 C 723.38 341.13, 723.29 340.26, 722.94 339.15 C 722.58 338.04, 722.40 337.45, 721.96 336.90 C 721.52 336.35, 721.28 336.24, 720.74 336.40 C 720.20 336.57, 719.88 336.92, 719.28 337.73 C 718.68 338.55, 718.36 339.29, 717.74 340.48 C 717.12 341.67, 716.78 342.50, 716.18 343.68 C 715.59 344.86, 715.25 345.54, 714.77 346.37 C 714.29 347.19, 714.12 347.59, 713.80 347.81 C 713.49 348.03, 713.38 347.97, 713.19 347.49 C 713.00 347.00, 712.94 346.49, 712.84 345.39 C 712.73 344.30, 712.74 343.43, 712.67 342.01 C 712.60 340.59, 712.62 339.65, 712.47 338.28 C 712.32 336.90, 712.23 336.09, 711.93 335.15 C 711.63 334.21, 711.45 333.78, 710.99 333.57 C 710.53 333.36, 710.24 333.48, 709.64 334.09 C 709.03 334.71, 708.63 335.31, 707.95 336.63 C 707.27 337.95, 706.88 338.96, 706.23 340.68 C 705.58 342.40, 705.20 343.54, 704.70 345.23 C 704.20 346.92, 703.97 347.92, 703.73 349.13 C 703.48 350.35, 703.48 350.86, 703.48 351.32 C 703.48 351.78, 703.61 351.76, 703.72 351.43 C 703.84 351.10, 703.93 350.66, 704.06 349.67 C 704.18 348.68, 704.24 347.92, 704.36 346.48 C 704.47 345.05, 704.56 344.10, 704.64 342.50 C 704.71 340.89, 704.73 339.90, 704.72 338.46 C 704.71 337.03, 704.69 336.32, 704.59 335.33 C 704.49 334.33, 704.41 333.86, 704.24 333.50 C 704.06 333.13, 703.88 333.14, 703.72 333.50" style="stroke: black; fill: black;"/><path d="M 913.88,344.56 C 914.20 344.51, 914.52 344.53, 915.22 343.96 C 915.91 343.38, 916.49 342.89, 917.36 341.67 C 918.23 340.45, 918.76 339.54, 919.55 337.86 C 920.34 336.18, 920.75 335.10, 921.31 333.28 C 921.87 331.45, 922.09 330.40, 922.35 328.74 C 922.61 327.08, 922.69 326.23, 922.61 324.97 C 922.53 323.72, 922.31 323.20, 921.93 322.49 C 921.55 321.78, 921.01 321.57, 920.71 321.41 C 920.41 321.24, 920.33 321.39, 920.42 321.67 C 920.52 321.94, 920.98 322.14, 921.19 322.80 C 921.40 323.47, 921.50 323.86, 921.46 325.00 C 921.43 326.14, 921.34 326.94, 921.02 328.51 C 920.71 330.07, 920.49 331.09, 919.90 332.82 C 919.31 334.55, 918.85 335.56, 918.08 337.15 C 917.30 338.75, 916.77 339.58, 916.03 340.79 C 915.29 342.00, 914.88 342.51, 914.40 343.19 C 913.91 343.87, 913.70 343.92, 913.60 344.20 C 913.50 344.47, 913.55 344.61, 913.88 344.56" style="stroke: black; fill: black;"/><path d="M 953.57,336.38 C 953.58 336.12, 953.47 335.87, 953.23 335.47 C 952.99 335.07, 952.79 334.77, 952.37 334.36 C 951.96 333.95, 951.69 333.67, 951.16 333.42 C 950.63 333.17, 950.28 333.03, 949.74 333.11 C 949.20 333.18, 948.89 333.27, 948.46 333.78 C 948.03 334.29, 947.80 334.74, 947.59 335.64 C 947.37 336.54, 947.35 337.11, 947.39 338.30 C 947.44 339.48, 947.50 340.29, 947.80 341.54 C 948.10 342.80, 948.30 343.57, 948.90 344.59 C 949.49 345.60, 949.94 346.14, 950.76 346.64 C 951.58 347.13, 952.08 347.28, 953.01 347.07 C 953.93 346.86, 954.45 346.57, 955.38 345.58 C 956.30 344.58, 956.80 343.82, 957.63 342.10 C 958.45 340.37, 958.85 339.20, 959.51 336.97 C 960.16 334.73, 960.49 333.37, 960.90 330.92 C 961.30 328.47, 961.43 327.06, 961.55 324.74 C 961.67 322.43, 961.65 321.15, 961.51 319.35 C 961.36 317.55, 961.20 316.65, 960.84 315.73 C 960.48 314.80, 960.13 314.54, 959.70 314.73 C 959.27 314.91, 959.00 315.40, 958.70 316.64 C 958.40 317.88, 958.26 318.93, 958.20 320.93 C 958.14 322.93, 958.23 324.26, 958.39 326.65 C 958.55 329.04, 958.67 330.48, 959.01 332.87 C 959.35 335.27, 959.54 336.53, 960.07 338.62 C 960.60 340.71, 960.93 341.74, 961.67 343.33 C 962.42 344.91, 962.86 345.60, 963.78 346.54 C 964.71 347.49, 965.22 347.78, 966.29 348.06 C 967.35 348.34, 967.97 348.32, 969.10 347.96 C 970.24 347.60, 970.88 347.22, 971.98 346.26 C 973.07 345.30, 973.64 344.58, 974.58 343.18 C 975.51 341.78, 975.99 340.84, 976.65 339.26 C 977.31 337.68, 977.59 336.73, 977.87 335.29 C 978.16 333.85, 978.23 333.10, 978.07 332.05 C 977.91 331.01, 977.66 330.50, 977.06 330.06 C 976.47 329.63, 975.88 329.56, 975.10 329.87 C 974.32 330.18, 973.85 330.63, 973.16 331.62 C 972.46 332.61, 972.07 333.40, 971.64 334.82 C 971.21 336.24, 971.02 337.16, 971.01 338.72 C 971.00 340.28, 971.11 341.23, 971.59 342.62 C 972.07 344.00, 972.47 344.73, 973.41 345.64 C 974.35 346.55, 974.95 346.90, 976.28 347.17 C 977.60 347.44, 978.46 347.39, 980.04 347.00 C 981.62 346.61, 982.55 346.19, 984.18 345.22 C 985.80 344.24, 986.66 343.52, 988.15 342.13 C 989.64 340.73, 990.43 339.78, 991.64 338.22 C 992.84 336.66, 993.43 335.71, 994.17 334.31 C 994.91 332.92, 995.14 332.23, 995.33 331.23 C 995.53 330.22, 995.47 329.84, 995.15 329.30 C 994.83 328.75, 994.44 328.56, 993.73 328.50 C 993.02 328.44, 992.41 328.59, 991.61 328.98 C 990.81 329.38, 990.34 329.79, 989.73 330.47 C 989.12 331.15, 988.82 331.59, 988.55 332.39 C 988.29 333.19, 988.22 333.63, 988.40 334.46 C 988.57 335.30, 988.82 335.77, 989.43 336.58 C 990.04 337.38, 990.52 337.80, 991.44 338.51 C 992.36 339.22, 993.00 339.50, 994.04 340.12 C 995.07 340.73, 995.69 341.02, 996.61 341.58 C 997.53 342.14, 998.03 342.44, 998.65 342.94 C 999.27 343.44, 999.53 343.62, 999.72 344.06 C 999.91 344.51, 999.86 344.71, 999.59 345.14 C 999.31 345.58, 999.02 345.82, 998.35 346.25 C 997.68 346.69, 997.15 346.94, 996.23 347.34 C 995.30 347.73, 994.68 347.94, 993.72 348.21 C 992.76 348.48, 992.21 348.60, 991.44 348.68 C 990.67 348.76, 990.35 348.65, 989.89 348.62 C 989.43 348.58, 989.33 348.56, 989.13 348.51 C 988.94 348.46, 989.01 348.37, 988.93 348.37 C 988.84 348.36, 988.74 348.34, 988.71 348.46 C 988.69 348.58, 988.61 348.74, 988.80 348.96 C 988.99 349.19, 989.12 349.40, 989.66 349.60 C 990.20 349.80, 990.61 349.96, 991.50 349.96 C 992.38 349.97, 993.02 349.89, 994.09 349.65 C 995.16 349.40, 995.83 349.21, 996.85 348.75 C 997.87 348.28, 998.45 347.97, 999.18 347.33 C 999.91 346.70, 1000.21 346.30, 1000.49 345.58 C 1000.78 344.87, 1000.79 344.47, 1000.59 343.77 C 1000.38 343.06, 1000.10 342.74, 999.45 342.07 C 998.81 341.40, 998.30 341.06, 997.36 340.42 C 996.43 339.78, 995.80 339.48, 994.79 338.87 C 993.78 338.25, 993.18 337.97, 992.31 337.34 C 991.44 336.72, 991.02 336.37, 990.45 335.74 C 989.89 335.11, 989.64 334.79, 989.48 334.21 C 989.32 333.62, 989.38 333.36, 989.65 332.82 C 989.91 332.28, 990.26 332.02, 990.80 331.51 C 991.34 330.99, 991.75 330.66, 992.35 330.25 C 992.94 329.83, 993.34 329.56, 993.79 329.43 C 994.23 329.29, 994.47 329.28, 994.59 329.58 C 994.71 329.89, 994.70 330.15, 994.39 330.97 C 994.09 331.79, 993.83 332.41, 993.05 333.68 C 992.27 334.96, 991.70 335.87, 990.52 337.35 C 989.34 338.82, 988.58 339.74, 987.16 341.07 C 985.75 342.40, 984.93 343.07, 983.43 344.00 C 981.94 344.93, 981.08 345.32, 979.69 345.73 C 978.30 346.14, 977.58 346.24, 976.48 346.06 C 975.39 345.88, 974.94 345.61, 974.21 344.85 C 973.47 344.08, 973.18 343.44, 972.83 342.22 C 972.48 341.00, 972.41 340.15, 972.47 338.76 C 972.53 337.37, 972.76 336.55, 973.14 335.27 C 973.51 333.99, 973.88 333.28, 974.36 332.36 C 974.84 331.45, 975.09 331.03, 975.54 330.69 C 975.99 330.34, 976.31 330.34, 976.60 330.63 C 976.90 330.92, 977.03 331.27, 977.02 332.14 C 977.02 333.01, 976.92 333.68, 976.57 334.99 C 976.23 336.30, 975.95 337.21, 975.30 338.68 C 974.65 340.16, 974.19 341.05, 973.34 342.37 C 972.49 343.68, 971.98 344.36, 971.06 345.27 C 970.13 346.17, 969.63 346.54, 968.73 346.91 C 967.82 347.29, 967.37 347.36, 966.53 347.14 C 965.69 346.93, 965.29 346.70, 964.53 345.84 C 963.78 344.99, 963.39 344.35, 962.75 342.85 C 962.12 341.34, 961.81 340.34, 961.35 338.31 C 960.88 336.28, 960.72 335.04, 960.45 332.69 C 960.18 330.34, 960.12 328.90, 960.00 326.55 C 959.88 324.20, 959.89 322.90, 959.86 320.95 C 959.84 318.99, 959.89 317.99, 959.89 316.79 C 959.89 315.59, 959.85 315.13, 959.88 314.95 C 959.91 314.78, 959.96 315.03, 960.03 315.92 C 960.10 316.81, 960.19 317.66, 960.22 319.41 C 960.24 321.16, 960.31 322.41, 960.16 324.66 C 960.00 326.91, 959.87 328.29, 959.44 330.67 C 959.02 333.04, 958.67 334.38, 958.03 336.53 C 957.39 338.69, 956.97 339.81, 956.25 341.46 C 955.52 343.11, 955.10 343.82, 954.40 344.76 C 953.71 345.71, 953.37 345.97, 952.76 346.17 C 952.15 346.38, 951.88 346.24, 951.35 345.79 C 950.81 345.35, 950.51 344.88, 950.10 343.96 C 949.69 343.05, 949.52 342.36, 949.30 341.22 C 949.08 340.07, 949.04 339.29, 948.98 338.22 C 948.92 337.16, 948.93 336.66, 949.01 335.89 C 949.08 335.12, 949.22 334.76, 949.37 334.39 C 949.53 334.01, 949.57 333.97, 949.78 334.01 C 949.98 334.05, 950.09 334.28, 950.39 334.58 C 950.69 334.88, 950.90 335.14, 951.28 335.50 C 951.66 335.85, 951.92 336.10, 952.29 336.35 C 952.67 336.60, 952.91 336.75, 953.16 336.75 C 953.42 336.76, 953.56 336.63, 953.57 336.38" style="stroke: black; fill: black;"/><path d="M 1033.77,310.83 C 1033.54 311.06, 1033.39 311.28, 1033.12 312.09 C 1032.85 312.90, 1032.68 313.42, 1032.41 314.87 C 1032.15 316.31, 1031.99 317.26, 1031.79 319.32 C 1031.59 321.37, 1031.52 322.66, 1031.41 325.14 C 1031.29 327.61, 1031.25 329.04, 1031.21 331.68 C 1031.18 334.33, 1031.12 335.82, 1031.23 338.35 C 1031.34 340.87, 1031.43 342.25, 1031.77 344.30 C 1032.11 346.36, 1032.35 347.34, 1032.93 348.63 C 1033.51 349.92, 1033.87 350.38, 1034.69 350.77 C 1035.52 351.15, 1036.07 351.06, 1037.06 350.54 C 1038.05 350.02, 1038.60 349.45, 1039.66 348.17 C 1040.72 346.90, 1041.30 345.96, 1042.36 344.19 C 1043.43 342.41, 1044.02 341.19, 1044.98 339.30 C 1045.95 337.41, 1046.49 336.20, 1047.19 334.71 C 1047.88 333.23, 1048.16 332.49, 1048.45 331.85 C 1048.73 331.22, 1048.69 331.14, 1048.61 331.55 C 1048.54 331.96, 1048.32 332.56, 1048.08 333.89 C 1047.84 335.23, 1047.58 336.35, 1047.41 338.22 C 1047.23 340.09, 1047.17 341.35, 1047.20 343.23 C 1047.24 345.11, 1047.25 346.18, 1047.58 347.63 C 1047.91 349.08, 1048.26 349.68, 1048.85 350.49 C 1049.44 351.31, 1049.94 351.49, 1050.55 351.71 C 1051.17 351.93, 1051.66 351.70, 1051.94 351.59 C 1052.22 351.49, 1052.17 351.30, 1051.95 351.19 C 1051.73 351.08, 1051.30 351.28, 1050.85 351.03 C 1050.39 350.79, 1050.08 350.69, 1049.67 349.96 C 1049.26 349.24, 1049.00 348.75, 1048.82 347.41 C 1048.64 346.06, 1048.70 345.06, 1048.78 343.25 C 1048.85 341.44, 1049.06 340.22, 1049.20 338.38 C 1049.34 336.53, 1049.51 335.40, 1049.49 334.01 C 1049.47 332.62, 1049.41 331.94, 1049.09 331.42 C 1048.77 330.91, 1048.52 330.89, 1047.89 331.42 C 1047.27 331.94, 1046.82 332.63, 1045.96 334.06 C 1045.10 335.49, 1044.59 336.71, 1043.59 338.57 C 1042.60 340.43, 1042.00 341.63, 1040.98 343.37 C 1039.97 345.11, 1039.41 346.03, 1038.52 347.30 C 1037.63 348.57, 1037.24 349.16, 1036.54 349.73 C 1035.83 350.30, 1035.53 350.45, 1035.00 350.16 C 1034.47 349.86, 1034.27 349.47, 1033.88 348.26 C 1033.49 347.05, 1033.29 346.11, 1033.04 344.12 C 1032.79 342.12, 1032.69 340.78, 1032.62 338.30 C 1032.54 335.81, 1032.60 334.33, 1032.66 331.71 C 1032.73 329.10, 1032.79 327.66, 1032.93 325.22 C 1033.07 322.77, 1033.17 321.50, 1033.36 319.47 C 1033.56 317.44, 1033.73 316.52, 1033.89 315.09 C 1034.05 313.65, 1034.11 313.13, 1034.18 312.31 C 1034.24 311.48, 1034.31 311.25, 1034.23 310.96 C 1034.14 310.66, 1033.99 310.61, 1033.77 310.83" style="stroke: black; fill: black;"/><path d="M 1051.97,318.10 C 1051.84 318.24, 1051.70 318.34, 1051.71 318.39 C 1051.71 318.44, 1051.79 318.44, 1051.99 318.35 C 1052.19 318.25, 1052.54 318.08, 1052.70 317.93 C 1052.86 317.77, 1052.87 317.62, 1052.80 317.57 C 1052.73 317.52, 1052.52 317.59, 1052.35 317.69 C 1052.19 317.80, 1052.10 317.96, 1051.97 318.10" style="stroke: black; fill: black;"/><path d="M 1056.27,331.93 C 1056.17 332.14, 1056.18 332.26, 1056.20 332.90 C 1056.21 333.54, 1056.18 333.98, 1056.35 335.12 C 1056.52 336.26, 1056.65 337.09, 1057.04 338.60 C 1057.42 340.12, 1057.74 341.05, 1058.27 342.70 C 1058.80 344.35, 1059.07 345.34, 1059.69 346.85 C 1060.31 348.36, 1060.62 349.17, 1061.37 350.25 C 1062.11 351.33, 1062.59 351.84, 1063.41 352.24 C 1064.23 352.65, 1064.69 352.66, 1065.47 352.29 C 1066.24 351.92, 1066.65 351.49, 1067.28 350.39 C 1067.91 349.30, 1068.21 348.42, 1068.61 346.81 C 1069.01 345.20, 1069.11 344.10, 1069.26 342.33 C 1069.42 340.57, 1069.42 339.53, 1069.38 337.99 C 1069.35 336.45, 1069.27 335.68, 1069.09 334.62 C 1068.92 333.56, 1068.75 333.21, 1068.51 332.68 C 1068.27 332.14, 1068.02 332.07, 1067.89 331.95 C 1067.75 331.83, 1067.69 331.99, 1067.83 332.07 C 1067.96 332.14, 1068.12 332.29, 1068.56 332.32 C 1068.99 332.36, 1069.29 332.32, 1069.99 332.23 C 1070.70 332.14, 1071.17 332.01, 1072.08 331.87 C 1073.00 331.74, 1073.58 331.63, 1074.56 331.57 C 1075.54 331.50, 1076.07 331.43, 1076.98 331.55 C 1077.89 331.66, 1078.34 331.74, 1079.12 332.14 C 1079.90 332.54, 1080.26 332.81, 1080.89 333.55 C 1081.52 334.29, 1081.82 334.74, 1082.26 335.84 C 1082.71 336.95, 1082.88 337.66, 1083.11 339.08 C 1083.33 340.50, 1083.35 341.39, 1083.38 342.93 C 1083.42 344.48, 1083.38 345.39, 1083.29 346.83 C 1083.21 348.26, 1083.06 349.04, 1082.97 350.11 C 1082.88 351.17, 1082.82 351.67, 1082.85 352.15 C 1082.88 352.64, 1082.95 352.73, 1083.12 352.54 C 1083.28 352.35, 1083.46 352.02, 1083.66 351.19 C 1083.87 350.37, 1083.96 349.68, 1084.14 348.41 C 1084.32 347.15, 1084.35 346.28, 1084.56 344.88 C 1084.77 343.47, 1084.90 342.58, 1085.17 341.37 C 1085.44 340.17, 1085.61 339.63, 1085.93 338.86 C 1086.24 338.08, 1086.37 337.80, 1086.74 337.50 C 1087.10 337.21, 1087.27 337.28, 1087.74 337.37 C 1088.21 337.46, 1088.40 337.70, 1089.10 337.96 C 1089.79 338.22, 1090.23 338.47, 1091.20 338.66 C 1092.17 338.84, 1092.79 338.94, 1093.94 338.90 C 1095.10 338.85, 1095.75 338.77, 1096.97 338.43 C 1098.18 338.09, 1098.87 337.82, 1100.01 337.19 C 1101.15 336.56, 1101.74 336.13, 1102.68 335.29 C 1103.62 334.46, 1104.08 333.89, 1104.70 333.01 C 1105.33 332.13, 1105.61 331.63, 1105.80 330.88 C 1105.99 330.12, 1105.94 329.68, 1105.64 329.24 C 1105.35 328.80, 1104.99 328.59, 1104.32 328.68 C 1103.66 328.76, 1103.16 328.96, 1102.33 329.66 C 1101.49 330.36, 1100.97 330.93, 1100.15 332.18 C 1099.34 333.43, 1098.87 334.30, 1098.24 335.92 C 1097.60 337.54, 1097.28 338.55, 1096.97 340.28 C 1096.66 342.01, 1096.57 343.02, 1096.70 344.59 C 1096.83 346.15, 1097.01 346.98, 1097.62 348.11 C 1098.23 349.23, 1098.70 349.70, 1099.75 350.21 C 1100.81 350.72, 1101.52 350.83, 1102.89 350.66 C 1104.27 350.50, 1105.14 350.21, 1106.62 349.37 C 1108.10 348.54, 1108.87 347.84, 1110.28 346.49 C 1111.69 345.13, 1112.42 344.20, 1113.67 342.59 C 1114.93 340.98, 1115.55 340.03, 1116.55 338.42 C 1117.56 336.81, 1118.02 335.89, 1118.71 334.53 C 1119.41 333.18, 1119.67 332.54, 1120.04 331.66 C 1120.41 330.77, 1120.48 330.44, 1120.57 330.12 C 1120.65 329.80, 1120.52 329.80, 1120.47 330.04 C 1120.42 330.28, 1120.27 330.59, 1120.31 331.33 C 1120.35 332.07, 1120.44 332.62, 1120.67 333.72 C 1120.90 334.82, 1121.15 335.50, 1121.47 336.84 C 1121.78 338.18, 1121.99 338.94, 1122.25 340.41 C 1122.50 341.88, 1122.69 342.74, 1122.76 344.20 C 1122.84 345.66, 1122.83 346.42, 1122.63 347.71 C 1122.44 349.01, 1122.21 349.67, 1121.78 350.68 C 1121.35 351.69, 1121.07 352.13, 1120.49 352.77 C 1119.90 353.40, 1119.51 353.57, 1118.86 353.84 C 1118.20 354.11, 1117.85 354.15, 1117.21 354.12 C 1116.57 354.09, 1116.21 353.91, 1115.65 353.69 C 1115.08 353.48, 1114.80 353.26, 1114.39 353.05 C 1113.97 352.85, 1113.78 352.69, 1113.56 352.67 C 1113.34 352.65, 1113.23 352.73, 1113.27 352.97 C 1113.31 353.21, 1113.39 353.50, 1113.77 353.88 C 1114.15 354.27, 1114.49 354.61, 1115.17 354.89 C 1115.85 355.18, 1116.37 355.30, 1117.19 355.29 C 1118.02 355.28, 1118.46 355.20, 1119.28 354.85 C 1120.10 354.51, 1120.58 354.28, 1121.30 353.54 C 1122.02 352.81, 1122.36 352.29, 1122.88 351.17 C 1123.40 350.05, 1123.66 349.33, 1123.91 347.92 C 1124.16 346.52, 1124.18 345.69, 1124.14 344.14 C 1124.09 342.59, 1123.92 341.70, 1123.68 340.18 C 1123.45 338.65, 1123.25 337.87, 1122.97 336.51 C 1122.70 335.14, 1122.56 334.45, 1122.29 333.35 C 1122.02 332.26, 1121.90 331.75, 1121.62 331.05 C 1121.35 330.34, 1121.23 330.07, 1120.93 329.81 C 1120.63 329.56, 1120.49 329.51, 1120.12 329.78 C 1119.75 330.05, 1119.59 330.34, 1119.09 331.17 C 1118.58 332.00, 1118.34 332.63, 1117.60 333.93 C 1116.86 335.23, 1116.41 336.12, 1115.40 337.68 C 1114.38 339.23, 1113.77 340.15, 1112.54 341.70 C 1111.32 343.25, 1110.59 344.14, 1109.27 345.44 C 1107.94 346.73, 1107.23 347.36, 1105.91 348.17 C 1104.60 348.98, 1103.85 349.24, 1102.71 349.47 C 1101.56 349.69, 1101.00 349.67, 1100.18 349.30 C 1099.35 348.93, 1099.02 348.58, 1098.58 347.62 C 1098.15 346.66, 1098.03 345.93, 1097.99 344.51 C 1097.95 343.10, 1098.05 342.16, 1098.38 340.55 C 1098.72 338.95, 1099.04 338.00, 1099.67 336.50 C 1100.29 335.00, 1100.77 334.21, 1101.50 333.04 C 1102.23 331.88, 1102.70 331.39, 1103.32 330.69 C 1103.94 329.99, 1104.23 329.77, 1104.59 329.54 C 1104.94 329.31, 1105.05 329.34, 1105.10 329.54 C 1105.14 329.73, 1105.10 329.98, 1104.81 330.51 C 1104.52 331.05, 1104.27 331.47, 1103.66 332.22 C 1103.05 332.97, 1102.64 333.52, 1101.78 334.27 C 1100.91 335.02, 1100.39 335.42, 1099.35 335.99 C 1098.32 336.55, 1097.68 336.79, 1096.59 337.08 C 1095.50 337.38, 1094.92 337.44, 1093.90 337.47 C 1092.87 337.49, 1092.34 337.37, 1091.46 337.22 C 1090.57 337.08, 1090.18 336.90, 1089.45 336.74 C 1088.72 336.58, 1088.45 336.41, 1087.80 336.42 C 1087.16 336.44, 1086.81 336.43, 1086.23 336.82 C 1085.66 337.20, 1085.41 337.53, 1084.93 338.36 C 1084.44 339.20, 1084.21 339.75, 1083.81 341.00 C 1083.41 342.25, 1083.22 343.16, 1082.94 344.60 C 1082.66 346.04, 1082.52 346.91, 1082.40 348.21 C 1082.28 349.51, 1082.26 350.21, 1082.33 351.09 C 1082.40 351.97, 1082.52 352.35, 1082.76 352.60 C 1083.00 352.85, 1083.24 352.80, 1083.53 352.34 C 1083.82 351.88, 1084.00 351.38, 1084.23 350.30 C 1084.46 349.21, 1084.57 348.40, 1084.69 346.92 C 1084.81 345.44, 1084.87 344.52, 1084.84 342.90 C 1084.80 341.29, 1084.79 340.36, 1084.52 338.84 C 1084.26 337.33, 1084.04 336.54, 1083.50 335.32 C 1082.96 334.10, 1082.58 333.59, 1081.82 332.74 C 1081.06 331.89, 1080.61 331.57, 1079.68 331.07 C 1078.76 330.57, 1078.22 330.45, 1077.19 330.25 C 1076.15 330.06, 1075.57 330.08, 1074.51 330.08 C 1073.44 330.09, 1072.84 330.16, 1071.88 330.27 C 1070.92 330.38, 1070.42 330.46, 1069.71 330.62 C 1069.00 330.78, 1068.74 330.86, 1068.32 331.05 C 1067.90 331.24, 1067.78 331.37, 1067.61 331.58 C 1067.43 331.80, 1067.42 331.86, 1067.44 332.13 C 1067.45 332.40, 1067.59 332.42, 1067.70 332.94 C 1067.81 333.47, 1067.90 333.74, 1067.96 334.75 C 1068.02 335.76, 1068.04 336.50, 1067.99 337.98 C 1067.94 339.47, 1067.89 340.49, 1067.71 342.18 C 1067.52 343.87, 1067.37 344.92, 1067.05 346.45 C 1066.73 347.98, 1066.50 348.80, 1066.10 349.82 C 1065.70 350.85, 1065.50 351.24, 1065.06 351.57 C 1064.61 351.91, 1064.39 351.89, 1063.86 351.49 C 1063.33 351.10, 1062.97 350.63, 1062.40 349.60 C 1061.83 348.57, 1061.54 347.81, 1061.01 346.34 C 1060.48 344.87, 1060.22 343.88, 1059.75 342.25 C 1059.27 340.62, 1059.01 339.69, 1058.63 338.20 C 1058.26 336.71, 1058.15 335.92, 1057.88 334.82 C 1057.60 333.72, 1057.49 333.29, 1057.25 332.68 C 1057.02 332.08, 1056.90 331.96, 1056.70 331.81 C 1056.51 331.66, 1056.37 331.71, 1056.27 331.93" style="stroke: black; fill: black;"/></svg>